<svg width="24" height="24" viewBox="0 0 24 24" fill="none" xmlns="http://www.w3.org/2000/svg">
<path d="M18.375 22.875H6C3.93375 22.875 2.25 21.1912 2.25 19.125V9.75C2.25 9.3375 2.5875 9 3 9H21.375C21.7875 9 22.125 9.3375 22.125 9.75V19.125C22.125 21.1912 20.4412 22.875 18.375 22.875ZM3.75 10.5V19.125C3.75 20.3663 4.75875 21.375 6 21.375H18.375C19.6162 21.375 20.625 20.3663 20.625 19.125V10.5H3.75Z" fill="#97E10A"/>
<path d="M22.1101 5.69999L21.6451 3.50249C21.4801 2.71874 21.0188 2.04374 20.3476 1.60874C19.6801 1.17374 18.8813 1.02749 18.1013 1.19249L7.89382 3.37124L4.24882 4.15124C2.64757 4.49249 1.61632 6.07499 1.94257 7.67999L2.26507 9.85874C2.29507 10.065 2.40757 10.245 2.58007 10.365C2.70757 10.4512 2.85757 10.5 3.00757 10.5C3.06007 10.5 3.11257 10.4962 3.16507 10.485L8.97007 9.25499C8.97007 9.25499 8.97757 9.25499 8.98132 9.25499C9.03382 9.25499 9.08632 9.25124 9.13882 9.23999C9.19507 9.22874 9.24757 9.20999 9.29632 9.18749L15.6113 7.84874C15.6413 7.84874 15.6713 7.84874 15.7013 7.83749C15.7351 7.82999 15.7651 7.81874 15.7951 7.80749L21.5363 6.58874C21.9413 6.50249 22.2001 6.10499 22.1138 5.69999H22.1101ZM9.54757 7.59374L8.93257 4.67999L14.0288 3.59249L14.6476 6.51374L9.54757 7.59374ZM3.41632 7.43999C3.41632 7.43999 3.41257 7.40999 3.40882 7.39499C3.23632 6.58499 3.75007 5.78999 4.55632 5.61749L7.47007 4.99499L8.08507 7.90499L3.63007 8.84999L3.42007 7.43999H3.41632ZM16.1176 6.20249L15.4988 3.28124L18.4126 2.65874C18.7988 2.57624 19.1963 2.65124 19.5263 2.86499C19.8601 3.08249 20.0926 3.41999 20.1751 3.81374L20.4863 5.27999L16.1176 6.20624V6.20249Z" fill="#97E10A"/>
<path d="M10.7999 19.1252C10.4549 19.1252 10.1099 19.0277 9.80991 18.8327C9.30366 18.5065 9.00366 17.959 9.00366 17.3665V14.509C9.00366 13.9165 9.30741 13.369 9.80991 13.0427C10.3349 12.7052 10.9912 12.6565 11.5612 12.9152L14.7112 14.344C15.3524 14.6365 15.7537 15.2477 15.7537 15.9377C15.7537 16.6277 15.3562 17.239 14.7112 17.5315L11.5612 18.9602C11.3174 19.069 11.0587 19.1252 10.7999 19.1252ZM10.7999 14.2502C10.7137 14.2502 10.6499 14.284 10.6199 14.3027C10.5637 14.3365 10.4999 14.404 10.4999 14.509V17.3665C10.4999 17.4715 10.5637 17.5352 10.6199 17.5727C10.6649 17.6027 10.7887 17.6627 10.9387 17.5952L14.0887 16.1665C14.2237 16.1065 14.2499 16.009 14.2499 15.9377C14.2499 15.8665 14.2237 15.7727 14.0887 15.709L10.9387 14.2802C10.8899 14.2577 10.8412 14.2502 10.7999 14.2502Z" fill="#97E10A"/>
</svg>
