<svg width="20" height="20" viewBox="0 0 20 20" fill="none" xmlns="http://www.w3.org/2000/svg">
<path d="M11 13L8 10L11 7M19 10C19 8.8181 18.7672 7.64778 18.3149 6.55585C17.8626 5.46392 17.1997 4.47177 16.364 3.63604C15.5282 2.80031 14.5361 2.13738 13.4442 1.68508C12.3522 1.23279 11.1819 1 10 1C8.8181 1 7.64778 1.23279 6.55585 1.68508C5.46392 2.13738 4.47177 2.80031 3.63604 3.63604C2.80031 4.47177 2.13738 5.46392 1.68508 6.55585C1.23279 7.64778 1 8.8181 1 10C1 12.3869 1.94821 14.6761 3.63604 16.364C5.32387 18.0518 7.61305 19 10 19C12.3869 19 14.6761 18.0518 16.364 16.364C18.0518 14.6761 19 12.3869 19 10Z" stroke="#97E10A" stroke-width="2" stroke-linecap="round" stroke-linejoin="round"/>
</svg>
