<svg width="24" height="24" viewBox="0 0 24 24" fill="none" xmlns="http://www.w3.org/2000/svg">
<path d="M18 18C21.3137 14.6863 21.3137 9.31371 18 6C14.6863 2.68629 9.31371 2.68629 6 6C2.68629 9.31371 2.68629 14.6863 6 18C9.31371 21.3137 14.6863 21.3137 18 18Z" fill="#FDC95A"/>
<path d="M5.00224 8.11321C7.26974 4.01198 12.57 2.72536 16.6713 4.99287C16.9037 5.12135 17.1272 5.2596 17.3426 5.40596C16.9618 5.0982 16.5492 4.81913 16.1059 4.57403C12.0047 2.30652 6.84178 3.79308 4.57428 7.89431C2.43526 11.7632 3.63735 16.5763 7.22322 19.0129C4.0813 16.4734 2.97984 11.7711 5.00224 8.11321Z" fill="#FFED92"/>
<path d="M16.8822 16.8822C19.5785 14.1858 19.5785 9.81417 16.8822 7.11781C14.1858 4.42145 9.81415 4.42144 7.11779 7.11781C4.42143 9.81417 4.42143 14.1858 7.11779 16.8822C9.81415 19.5786 14.1858 19.5786 16.8822 16.8822Z" fill="#E9AD41"/>
<path d="M9.74733 17.9002C6.41014 16.0552 5.20054 11.8541 7.04561 8.51697C8.05367 6.69366 9.76505 5.50553 11.6545 5.10364C9.34975 5.2213 7.15634 6.49092 5.95754 8.6592C4.11249 11.9964 5.32208 16.1974 8.65925 18.0425C10.1731 18.8795 11.8648 19.0878 13.4336 18.7541C12.1911 18.8175 10.9162 18.5465 9.74733 17.9002Z" fill="#D48A27"/>
<path d="M16.3344 9.98626C16.2907 9.54963 16.1845 9.13223 15.9551 8.75291C15.8044 8.50381 15.6171 8.29151 15.4014 8.10586C15.4745 7.96557 15.5476 7.82529 15.6207 7.68499C15.6456 7.63725 15.6704 7.58952 15.6953 7.54178C15.7844 7.37067 15.8202 7.17541 15.768 6.9859C15.7219 6.81856 15.5925 6.63722 15.4365 6.55476C15.2691 6.46631 15.0662 6.42197 14.8806 6.48204C14.7067 6.53834 14.5365 6.64657 14.4495 6.81358C14.3372 7.0292 14.2248 7.24482 14.1125 7.46045C13.8069 7.39101 13.4841 7.35963 13.1726 7.38458C12.9741 7.40048 12.7732 7.4273 12.5796 7.47603C12.3892 7.52398 12.2073 7.59938 12.0289 7.68059C11.9038 7.73755 11.7842 7.8068 11.6735 7.8884C11.5159 8.00455 11.3615 8.12431 11.2333 8.27297C10.9687 8.57974 10.7686 8.9334 10.6715 9.32938C10.5613 9.77913 10.5463 10.2866 10.6754 10.734C10.8015 11.1706 11.0665 11.5612 11.4087 11.8576C11.7086 12.1173 12.0438 12.3253 12.3681 12.5513C12.4111 12.5813 12.453 12.6129 12.4951 12.6441C12.5894 12.722 12.6783 12.806 12.7583 12.8985C12.7872 12.9417 12.8138 12.9864 12.8376 13.0326C12.8612 13.1033 12.8792 13.1756 12.8929 13.249C12.9031 13.3627 12.9039 13.4768 12.8947 13.5906C12.8769 13.6823 12.8521 13.7722 12.8206 13.8601C12.7801 13.9428 12.7336 14.0222 12.6812 14.098C12.6141 14.1763 12.5413 14.2492 12.4629 14.3162C12.361 14.3879 12.2533 14.4506 12.1408 14.5043C11.995 14.559 11.8447 14.5993 11.6913 14.6259C11.5552 14.6386 11.4186 14.6404 11.2823 14.6291C11.1407 14.603 11.0022 14.5636 10.8673 14.5129C10.706 14.4378 10.5526 14.3477 10.4081 14.2438C10.2787 14.1364 10.1593 14.0179 10.0516 13.8886C9.97568 13.7811 9.90878 13.6679 9.85217 13.5491C9.81789 13.4541 9.79129 13.3569 9.77232 13.2577C9.7664 13.1741 9.76681 13.0904 9.77304 13.0068C9.7775 12.984 9.78216 12.9613 9.78745 12.9387C9.83117 12.7521 9.81288 12.5505 9.71473 12.3828C9.62717 12.2331 9.45557 12.0904 9.28359 12.0513C9.09891 12.0092 8.89163 12.0183 8.72771 12.124C8.57309 12.2237 8.43931 12.371 8.39618 12.5551C8.28785 13.0174 8.3009 13.5195 8.47236 13.9656C8.55778 14.1879 8.65557 14.4032 8.79181 14.599C8.92835 14.7952 9.08033 14.9847 9.2548 15.1488C9.38367 15.2699 9.52296 15.3824 9.66992 15.4848C9.57454 15.6679 9.47916 15.851 9.38377 16.0341C9.35889 16.0818 9.33403 16.1296 9.30915 16.1773C9.22002 16.3484 9.18424 16.5437 9.23644 16.7332C9.28252 16.9005 9.4119 17.0819 9.56796 17.1643C9.7354 17.2528 9.93821 17.2971 10.1238 17.237C10.2978 17.1807 10.468 17.0725 10.555 16.9055C10.7048 16.6179 10.8546 16.3303 11.0045 16.0427C11.2354 16.081 11.4707 16.0917 11.706 16.0683C12.177 16.0214 12.6276 15.9026 13.0393 15.6615C13.4206 15.4381 13.7486 15.122 13.9808 14.7457C14.217 14.363 14.3391 13.9072 14.3452 13.4589C14.3485 13.2214 14.3168 12.9755 14.2585 12.7457C14.2349 12.6527 14.1985 12.5662 14.1613 12.4779C14.1242 12.3899 14.0876 12.3038 14.038 12.2221C13.6937 11.6554 13.1163 11.3331 12.59 10.9617C12.5589 10.9397 12.5286 10.9166 12.4979 10.894C12.3875 10.8038 12.2839 10.7059 12.1914 10.5975C12.1546 10.5428 12.1213 10.486 12.0917 10.4272C12.0688 10.3609 12.0504 10.2933 12.0365 10.2245C12.0254 10.0944 12.0264 9.96319 12.0382 9.83311C12.0579 9.72564 12.086 9.62013 12.1232 9.51742C12.1609 9.44044 12.204 9.36634 12.2525 9.29564C12.3103 9.22866 12.3728 9.16606 12.4397 9.10824C12.5288 9.0461 12.6227 8.99152 12.7206 8.94445C12.854 8.89463 12.9916 8.85752 13.1319 8.83258C13.2959 8.81697 13.4609 8.81717 13.6249 8.83286C13.7808 8.86013 13.9336 8.90154 14.0816 8.95738C14.1981 9.01266 14.3096 9.07754 14.415 9.1519C14.4959 9.22095 14.5711 9.29606 14.6402 9.3769C14.6984 9.46066 14.75 9.54859 14.7946 9.64035C14.8376 9.7573 14.8699 9.87758 14.8919 10.0002C14.8906 10.0942 14.9107 10.1824 14.9537 10.2642C14.9828 10.3537 15.0325 10.4311 15.1029 10.4964C15.228 10.6215 15.4333 10.7158 15.613 10.7077C15.7995 10.6993 15.993 10.6381 16.1231 10.4964C16.2451 10.3635 16.3532 10.1736 16.3344 9.98626Z" fill="#FFDA77"/>
<path d="M20.4897 16.6798C20.5157 16.6327 20.5409 16.5853 20.5658 16.538C20.5894 16.4929 20.6126 16.4477 20.6355 16.4024L19.5775 15.8175C19.5288 15.914 19.4788 16.0102 19.426 16.1056C19.3959 16.1601 19.3651 16.2138 19.334 16.2673L20.3919 16.8522C20.4029 16.8332 20.4136 16.814 20.4245 16.795C20.4444 16.7603 20.4645 16.7257 20.4839 16.6906C20.4859 16.687 20.4878 16.6833 20.4897 16.6798Z" fill="#A65612"/>
<path d="M18.1196 17.8803L19.1776 18.4653C19.2983 18.3396 19.4156 18.2098 19.5292 18.0756C19.5292 18.0756 19.5293 18.0755 19.5294 18.0754L18.4718 17.4906C18.3581 17.6249 18.2404 17.7545 18.1196 17.8803Z" fill="#A65612"/>
<path d="M17.8917 19.5606L16.8339 18.9758C16.6742 19.0863 16.511 19.1909 16.3447 19.2898L17.4027 19.8747C17.5689 19.7759 17.732 19.6711 17.8917 19.5606Z" fill="#A65612"/>
<path d="M14.7776 20.0173C14.5522 20.0953 14.3238 20.1643 14.0928 20.2231L15.1505 20.8079C15.2047 20.7941 15.2586 20.7797 15.3125 20.7648C15.3187 20.7631 15.325 20.7614 15.3312 20.7597C15.3821 20.7455 15.4329 20.7309 15.4836 20.7158C15.4924 20.7132 15.5012 20.7105 15.5101 20.7078C15.5598 20.6928 15.6093 20.6775 15.6587 20.6616C15.6668 20.659 15.6748 20.6563 15.6829 20.6537C15.734 20.6371 15.7851 20.6201 15.836 20.6025L14.7776 20.0173Z" fill="#A65612"/>
<path d="M12.0696 20.4856C11.674 20.4892 11.2766 20.4653 10.8804 20.4126L11.9395 20.9982C12.034 21.0107 12.1286 21.0214 12.2232 21.0307C12.2344 21.0318 12.2457 21.0327 12.2569 21.0338C12.3483 21.0424 12.4398 21.0498 12.5312 21.0553C12.5325 21.0554 12.5338 21.0555 12.5351 21.0556C12.7329 21.0676 12.9307 21.0726 13.128 21.0708L12.0696 20.4856Z" fill="#A65612"/>
<path d="M21.2047 14.9638C21.2544 14.7941 21.2986 14.6237 21.3372 14.4527L20.2792 13.8678C20.2406 14.0388 20.1965 14.2093 20.1467 14.379L21.2046 14.9639C21.2047 14.9638 21.2047 14.9638 21.2047 14.9638Z" fill="#A65612"/>
<path d="M21.5442 12.5479C21.5431 12.3482 21.535 12.149 21.52 11.9506L20.4619 11.3656C20.477 11.5642 20.4851 11.7636 20.4862 11.9634L21.5442 12.5484C21.5442 12.5482 21.5442 12.548 21.5442 12.5479Z" fill="#A65612"/>
<path d="M21.2301 10.3025C21.2138 10.2441 21.1968 10.1859 21.1793 10.1279C21.1784 10.1249 21.1775 10.1219 21.1766 10.1189C21.1593 10.062 21.1414 10.0052 21.1229 9.94871C21.1218 9.94532 21.1207 9.94194 21.1196 9.93854C21.1009 9.88164 21.0817 9.82493 21.0618 9.76842C21.0611 9.76628 21.0603 9.76415 21.0596 9.76199C21.0392 9.70418 21.0182 9.64657 20.9966 9.58918L19.9382 9.00403C20.0266 9.23848 20.1048 9.4766 20.1722 9.71778L21.2302 10.3028C21.2302 10.3027 21.2302 10.3026 21.2301 10.3025Z" fill="#A65612"/>
<path d="M20.3309 8.21171C20.2823 8.13074 20.2323 8.05058 20.1809 7.97117C20.1778 7.96642 20.1746 7.96173 20.1716 7.95699C20.122 7.88074 20.0713 7.80519 20.0192 7.73043C20.0174 7.72794 20.0157 7.72543 20.014 7.72293C19.9038 7.56516 19.788 7.41076 19.6667 7.26005L18.6079 6.67468C18.8521 6.97792 19.0742 7.29597 19.2727 7.62665L20.3309 8.21171Z" fill="#A65612"/>
</svg>
