<svg width="40" height="40" viewBox="0 0 40 40" fill="none" xmlns="http://www.w3.org/2000/svg">
<path d="M30 2.67978C33.0165 4.4215 35.5259 6.92084 37.2796 9.93039C39.0334 12.9399 39.9707 16.3553 39.9989 19.8385C40.027 23.3216 39.1449 26.7517 37.44 29.7892C35.7351 32.8267 33.2665 35.3662 30.2785 37.1564C27.2905 38.9466 23.8867 39.9254 20.4042 39.9959C16.9217 40.0664 13.4811 39.2261 10.4231 37.5583C7.36512 35.8904 4.79574 33.4528 2.96933 30.4868C1.14292 27.5208 0.122819 24.1292 0.0100002 20.6478L0 19.9998L0.0100002 19.3518C0.122006 15.8978 1.1271 12.5317 2.92728 9.58177C4.72746 6.63183 7.26131 4.19869 10.2818 2.51955C13.3023 0.840411 16.7063 -0.0274216 20.162 0.000660491C23.6177 0.0287426 27.0072 0.95178 30 2.67978ZM27.414 14.5858C27.0696 14.2414 26.6114 14.0346 26.1254 14.004C25.6393 13.9734 25.1588 14.1213 24.774 14.4198L24.586 14.5858L18 21.1698L15.414 18.5858L15.226 18.4198C14.8412 18.1215 14.3607 17.9738 13.8748 18.0045C13.3889 18.0351 12.9308 18.242 12.5865 18.5863C12.2422 18.9306 12.0354 19.3887 12.0047 19.8746C11.974 20.3605 12.1217 20.841 12.42 21.2258L12.586 21.4138L16.586 25.4138L16.774 25.5798C17.1247 25.8519 17.5561 25.9996 18 25.9996C18.4439 25.9996 18.8753 25.8519 19.226 25.5798L19.414 25.4138L27.414 17.4138L27.58 17.2258C27.8785 16.841 28.0263 16.3605 27.9958 15.8744C27.9652 15.3884 27.7584 14.9302 27.414 14.5858Z" fill="#97E10A"/>
</svg>
