<svg width="34" height="34" viewBox="0 0 34 34" fill="none" xmlns="http://www.w3.org/2000/svg">
<path d="M2 17H3.66667M17 2V3.66667M30.3333 17H32M6.33333 6.33333L7.5 7.5M27.6667 6.33333L26.5 7.5M13.1666 25.3333H20.8333M12 23.6667C10.6008 22.6173 9.56722 21.1542 9.04572 19.4847C8.52422 17.8153 8.54122 16.024 9.09431 14.3648C9.64739 12.7055 10.7085 11.2623 12.1274 10.2396C13.5463 9.21698 15.251 8.66667 17 8.66667C18.749 8.66667 20.4537 9.21698 21.8726 10.2396C23.2915 11.2623 24.3526 12.7055 24.9057 14.3648C25.4588 16.024 25.4758 17.8153 24.9543 19.4847C24.4328 21.1542 23.3992 22.6173 22 23.6667C21.3493 24.3108 20.8593 25.0991 20.5698 25.9677C20.2802 26.8363 20.1992 27.7609 20.3333 28.6667C20.3333 29.5507 19.9821 30.3986 19.357 31.0237C18.7319 31.6488 17.8841 32 17 32C16.1159 32 15.2681 31.6488 14.643 31.0237C14.0179 30.3986 13.6667 29.5507 13.6667 28.6667C13.8008 27.7609 13.7198 26.8363 13.4302 25.9677C13.1407 25.0991 12.6507 24.3108 12 23.6667Z" stroke="white" stroke-width="2.8" stroke-linecap="round" stroke-linejoin="round"/>
</svg>
