<svg width="72" height="73" viewBox="0 0 72 73" fill="none" xmlns="http://www.w3.org/2000/svg">
<path d="M72 37C72 56.8823 55.8823 73 36 73C16.1177 73 0 56.8823 0 37C0 17.1177 16.1177 1 36 1C55.8823 1 72 17.1177 72 37ZM14.4 37C14.4 48.9294 24.0707 58.6 36 58.6C47.9294 58.6 57.6 48.9294 57.6 37C57.6 25.0707 47.9294 15.4 36 15.4C24.0707 15.4 14.4 25.0707 14.4 37Z" fill="#0E2438"/>
<circle cx="38.8801" cy="8.2" r="7.2" fill="#97E10A"/>
<g filter="url(#filter0_f_40000011_5112)">
<circle cx="38.8801" cy="8.2" r="6.7" stroke="#97E10A"/>
</g>
<g opacity="0.5" filter="url(#filter1_f_40000011_5112)">
<ellipse cx="38.88" cy="7.96" rx="6" ry="0.96" fill="#97E10A"/>
</g>
<circle opacity="0.2" cx="34.3201" cy="9.40001" r="0.48" fill="#97E10A"/>
<circle opacity="0.2" cx="36.4801" cy="3.4" r="0.24" fill="#97E10A"/>
<circle opacity="0.2" cx="36.7201" cy="11.8" r="0.48" fill="#97E10A"/>
<circle opacity="0.2" cx="42.72" cy="11.32" r="0.96" fill="#97E10A"/>
<circle opacity="0.2" cx="42.48" cy="3.64" r="0.48" fill="#97E10A"/>
<circle opacity="0.2" cx="37.2001" cy="6.52" r="0.96" fill="#97E10A"/>
<defs>
<filter id="filter0_f_40000011_5112" x="30.6801" y="0" width="16.4" height="16.4" filterUnits="userSpaceOnUse" color-interpolation-filters="sRGB">
<feFlood flood-opacity="0" result="BackgroundImageFix"/>
<feBlend mode="normal" in="SourceGraphic" in2="BackgroundImageFix" result="shape"/>
<feGaussianBlur stdDeviation="0.5" result="effect1_foregroundBlur_40000011_5112"/>
</filter>
<filter id="filter1_f_40000011_5112" x="30.88" y="5" width="16" height="5.92001" filterUnits="userSpaceOnUse" color-interpolation-filters="sRGB">
<feFlood flood-opacity="0" result="BackgroundImageFix"/>
<feBlend mode="normal" in="SourceGraphic" in2="BackgroundImageFix" result="shape"/>
<feGaussianBlur stdDeviation="1" result="effect1_foregroundBlur_40000011_5112"/>
</filter>
</defs>
</svg>
