<svg width="390" height="589" viewBox="0 0 390 589" fill="none" xmlns="http://www.w3.org/2000/svg">
<path d="M194 28C194 12.536 206.536 0 222 0H390V196H222C206.536 196 194 183.464 194 168V28Z" fill="#098CF1"/>
<path d="M331.491 26.278C336.559 26.278 340.668 22.1863 340.668 17.139C340.668 12.0917 336.559 8 331.491 8C326.423 8 322.314 12.0917 322.314 17.139C322.314 22.1863 326.423 26.278 331.491 26.278Z" fill="#011324"/>
<path d="M356.959 39.2494C356.586 38.1375 356.091 39.3134 355.632 38.241C354.913 36.5534 354.656 36.4224 355.026 36.2579C355.173 36.1939 355.35 36.136 355.363 35.9319C355.378 35.6791 355.323 35.4384 355.179 35.2252C354.965 34.9084 354.405 35.5298 354.2 34.7012C353.543 32.0082 353.494 30.6831 352.863 25.4464C352.784 24.7854 353.46 25.3946 353.328 24.3924C353.221 23.5729 352.637 24.3528 352.426 23.4846C352.243 22.7352 352.056 22.5555 352.301 22.2112C352.53 21.8883 352.322 21.4679 351.94 21.3522C351.787 21.3065 351.689 21.2425 351.622 21.0993C351.16 20.1458 350.857 19.8046 350.869 19.2959C350.884 18.5587 350.23 18.8359 350.046 18.6074C349.762 18.2632 349.355 18.0073 349.254 17.5321C349.214 17.5199 349.174 17.5107 349.135 17.4985C348.838 17.6356 348.627 17.465 348.416 17.3005C348.217 17.2457 348.015 17.1909 347.816 17.136C347.458 17.2944 346.972 17.2183 346.792 17.7027C346.755 17.8001 344.647 18.3454 344.577 22.5737C344.559 23.5851 344.146 23.0764 343.962 23.9233C343.828 24.5417 344.14 25.3246 343.864 25.946C343.696 26.3238 344.161 26.2324 343.843 27.1402C343.616 27.7921 344.152 27.1798 343.595 29.1203C343.044 31.0395 342.344 31.2802 342.078 32.2215C341.91 32.8216 341.298 33.0044 341.197 33.5406C341.056 34.2869 339.505 36.2914 339.793 36.6356C340.08 36.9829 340.867 36.3036 340.643 36.9372C335.874 50.5178 334.143 50.4538 325.685 64.54C322.767 69.3989 320.403 70.8825 320.828 71.4369C321.149 71.8573 318.726 72.5184 317.332 74.0629C314.551 77.1488 314.829 76.8046 314.551 77.1549C312.606 79.6042 312.942 80.8227 312.278 81.4502C309.235 84.3229 309.859 84.6184 309.152 84.3839C305.2 83.0678 305.118 83.1988 305.044 84.2529C304.83 87.4058 297.192 101.462 297.357 103.923C297.47 105.653 297.122 107.557 297.467 109.364C297.486 109.464 297.489 109.568 297.492 109.671C297.51 110.138 297.483 110.165 297.067 110.013C294.922 109.221 294.699 108.94 294.329 109.419C294.17 109.623 293.937 109.601 293.827 109.373C293.552 108.788 292.995 108.416 292.705 107.835C292.022 106.473 291.2 106.988 290.701 107.091C289.658 107.311 290.037 107.737 284.877 106.345C283.843 106.065 283.968 106.284 284.121 105.218C284.935 99.5059 282.812 90.5101 283.88 89.7363C285.629 88.4721 285.244 87.4759 285.908 87.3236C286.162 87.2627 286.364 87.0982 286.468 86.8636C287.257 85.0998 287.624 84.4966 287.055 83.8751C286.336 83.0922 285.571 82.0991 284.675 82.3063C284.366 82.3763 284.17 82.2941 283.965 82.0839C283.412 81.5142 282.415 81.4563 281.855 81.9102C281.647 82.0778 281.494 82.0748 281.249 81.9499C280.442 81.5386 279.811 81.7153 279.325 82.4647C278.799 83.275 278.083 82.4891 277.334 83.9391C276.795 84.984 277.413 90.2389 277.835 90.8299C277.909 90.9365 277.93 91.0523 277.915 91.1833C277.404 95.5731 277.318 95.5243 276.168 99.1556C276.034 99.579 275.933 99.2226 275.107 98.5097C268.986 93.2243 263.318 91.9662 262.039 90.507C260.641 88.9107 260.485 88.3533 259.617 87.6892C259.363 87.4972 259.531 87.4454 260.663 86.6168C262.287 85.4227 262.388 84.2681 261.648 83.211C261.296 82.7084 260.984 82.6322 261.042 82.0473C261.149 81.0085 260.651 81.1426 260.678 80.7953C260.724 80.2104 260.635 79.7108 260.1 79.327C259.562 78.9401 260.268 78.5715 260.583 77.9927C261.204 76.8411 260.29 76.5396 257.402 75.3393C256.454 74.9463 257.274 74.3157 256.029 73.1216C255.062 72.1955 253.585 70.715 252.438 70.0783C252.337 70.0234 252.227 69.9838 252.126 69.9351C252.398 69.7127 252.655 69.4721 252.86 69.1979C252.428 69.4386 251.976 69.5726 251.514 69.667C251.367 69.6152 251.214 69.5787 251.061 69.536C251.287 69.3868 251.505 69.2223 251.694 69.0273C252.067 68.6496 252.312 68.153 252.34 67.6747C252.098 68.1286 251.728 68.3998 251.315 68.5612C251.333 68.4972 251.346 68.4272 251.349 68.3541C251.122 68.418 250.893 68.4729 250.66 68.5308C250.948 68.22 251.141 67.8149 251.159 67.431C250.954 67.821 250.627 68.0647 250.257 68.1957C249.886 68.3388 249.48 68.4059 249.021 68.5704C248.95 68.5947 248.88 68.6221 248.807 68.6557C248.785 68.6526 248.767 68.6526 248.746 68.6496C248.516 68.6313 248.296 68.6252 248.079 68.6221C248.174 68.3784 248.388 68.1104 248.632 67.8666C248.95 67.5407 249.339 67.23 249.639 66.8583C249.217 67.0776 248.767 67.1934 248.311 67.3762C248.054 67.4828 247.773 67.6016 247.507 67.7905C247.51 67.7783 247.513 67.7661 247.516 67.7509C247.488 67.7874 247.283 67.9276 247.103 68.0281C247.253 67.5894 247.58 67.1142 247.855 66.6725C247.598 66.8522 247.332 67.0198 247.072 67.2147L247.066 67.2056C247.036 67.233 247.008 67.2604 246.978 67.2878C246.962 67.3 246.947 67.3092 246.935 67.3213C246.867 67.3762 246.8 67.431 246.736 67.4919C246.681 67.5346 246.626 67.5772 246.568 67.6199C246.555 67.6047 246.546 67.5894 246.534 67.5772C246.76 66.9375 247.057 66.1942 246.828 65.5057C246.769 66.0388 246.467 66.4349 246.127 66.8035C245.8 67.1721 245.39 67.5102 245.09 68.1195C244.891 67.7021 244.772 67.23 244.882 66.7304C244.57 67.1508 244.454 67.7356 244.478 68.2931C244.488 68.5003 244.509 68.7074 244.543 68.9115C244.335 68.4363 244.258 67.821 244.448 67.2574C244.267 67.4432 244.142 67.6839 244.041 67.9367C244.02 67.8788 244.001 67.824 243.98 67.7631C243.414 66.2247 243.68 66.2186 242.918 61.2317C242.655 59.5105 241.007 58.0361 240.199 59.5776C239.673 60.5798 240.23 61.8775 240.239 62.1182C240.392 66.5537 240.352 66.5506 240.126 66.6146C239.755 66.7212 239.541 66.3465 238.81 64.1806C238.419 63.023 236.452 59.3125 235.501 58.5418C234.861 58.0239 234.078 58.2159 233.785 58.9714C233.512 59.672 234.008 61.0489 234.458 61.6521C234.69 61.9659 237.636 68.2292 236.406 67.4432C235.865 67.0959 235.204 65.1554 232.846 62.4594C232.524 62.0908 231.521 60.4549 230.414 61.3201C229.579 61.9689 230.169 63.2545 230.72 63.9887C231.668 65.2529 234.828 69.9625 233.479 69.5147C232.506 69.1918 228.692 65.1128 227.101 66.6816C227.067 66.8004 227.034 66.9192 227 67.0411C227.046 67.1081 227.116 67.1721 227.135 67.2482C227.44 68.4363 228.863 68.6648 230.753 70.7241C232.475 72.6037 233.283 76.8594 236.372 78.3308C236.363 78.3582 236.357 78.3887 236.345 78.4161C236.238 78.6689 236.103 78.9127 235.914 79.0193C235.727 79.1411 235.406 79.004 235.179 78.7938C235.305 79.0558 235.531 79.4092 235.99 79.4031C236.375 79.3727 236.657 79.1594 236.899 78.9492C237.009 79.2112 237.128 79.4671 237.253 79.7199C237.263 79.8052 237.272 79.8997 237.278 79.9941C237.22 80.3018 237.162 80.6034 237.082 80.9019C236.984 81.2644 236.871 81.6239 236.684 81.9072C236.59 82.0473 236.476 82.1631 236.32 82.2088C236.164 82.2575 235.963 82.2118 235.785 82.1174C235.91 82.2697 236.082 82.419 236.327 82.4555C236.571 82.4921 236.822 82.3977 237.018 82.2758C237.082 82.2362 237.14 82.1936 237.198 82.1479C237.18 82.5835 237.247 82.9917 237.351 83.3116C237.516 83.8416 237.74 84.2224 237.951 84.5606C238.373 85.2186 238.792 85.7669 239.079 86.2635C239.15 86.3975 239.214 86.5437 239.275 86.696C239.358 86.5955 239.437 86.4919 239.52 86.3914C239.648 86.5559 239.771 86.7174 239.915 86.8849C240.309 87.3388 240.061 86.76 241.517 88.7584C243.506 91.4849 243.757 91.3661 243.576 92.0119C242.747 94.9973 245.98 98.1076 245.833 98.8296C245.622 99.8714 245.451 102.369 245.818 103.88C246.075 104.934 245.298 108.41 246.522 111.533C246.543 111.591 246.555 111.652 246.558 111.716C246.916 116.745 252.089 120.946 253.891 122.698C254.906 123.688 260.161 133.832 271.4 134.594C277.471 135.005 281.858 139.861 287.691 135.38C288.291 134.92 287.936 136.732 289.117 137.137C290.851 137.734 290.248 137.801 293.738 139.516C299.232 142.219 300.125 141.883 320.987 144.71C321.271 144.75 321.281 144.781 321.14 145.076C320.718 145.956 320.179 146.767 319.562 147.519C313.817 154.514 316.763 151.546 311.284 157.085C310.779 157.596 310.783 157.414 310.737 157.063C310.685 156.667 310.409 156.844 309.874 157.066C308.32 157.718 308.293 157.755 308.143 157.749C307.127 157.721 306.258 158.178 305.381 158.577C304.074 159.171 303.037 160.128 302.049 161.139C301.719 161.477 301.689 161.66 301.343 161.633C300.933 161.602 300.814 161.764 300.783 162.178C300.768 162.367 300.774 162.55 300.82 162.733C300.878 162.952 301.006 163.177 300.982 163.388C300.96 163.592 300.746 163.765 300.835 164.015C300.89 164.177 300.462 164.286 300.6 164.664C300.927 165.581 301.08 165.45 301.386 165.41C301.832 165.349 301.838 165.349 302.04 165.745C302.398 166.443 302.793 167.122 302.992 167.893C303.166 168.566 302.426 168.265 302.732 168.962C302.989 169.547 303.031 169.718 303.521 169.608C303.964 169.511 303.97 169.535 304.172 169.937C305.206 171.972 305.983 174.111 306.72 176.261C307.846 179.539 308.051 179.551 307.604 179.804C307.24 180.008 307.589 180.715 307.828 180.861C307.901 180.907 308.036 180.883 308.131 180.855C308.568 180.724 308.55 181.02 309.112 182.028C309.244 182.263 309.385 182.439 309.122 182.729C308.892 182.979 309.32 183.636 309.675 183.597C310.079 183.551 310.048 183.627 311.202 185.16C311.593 185.678 310.978 185.327 311.431 186.089C311.807 186.725 312.049 185.943 312.499 186.396C312.762 186.665 313.135 186.829 313.168 187.289C313.181 187.451 313.361 187.6 313.462 187.752C313.502 187.764 313.542 187.773 313.581 187.786C313.838 187.545 314.104 187.493 314.423 187.697C314.998 188.066 315.793 188.206 316.029 187.484C316.24 186.835 316.405 187.572 317.325 185.431C318.084 183.67 316.775 181.428 316.836 179.838C316.857 179.228 316.42 178.293 316.5 177.708C316.521 177.565 316.31 177.178 316.246 177.02C316.096 176.666 316.334 176.264 316.123 175.929C315.915 175.594 315.866 175.241 315.882 174.863C315.894 174.561 315.677 174.242 315.729 173.952C315.799 173.562 315.753 173.185 315.72 172.795C315.646 171.929 316.665 169.243 316.854 168.92C317.729 167.433 317.949 167.366 317.084 167.122C316.784 167.037 316.778 167.037 316.864 166.751C317.225 165.557 317.897 164.545 318.766 163.665C320.699 161.706 325.187 157.088 327.652 155.857C334.663 152.351 339.355 148.11 342.014 146.727C343.938 145.725 344.467 145.11 345.709 143.663C346.452 142.797 344.761 142.974 345.568 142.2C346.675 141.137 348.232 138.49 347.581 136.114C346.183 131.032 341.861 128.909 337.119 127.093C334.064 125.924 335.584 126.892 334.672 124.038C334.461 123.38 333.455 123.374 333.079 123.438C332.124 123.605 331.136 123.557 323.868 122.158C321.85 121.772 321.715 121.921 321.892 121.528C324.18 116.404 324.361 111.35 327.138 103.762C327.888 101.711 328.105 99.4328 329.026 96.9531C329.582 95.4543 330.659 94.9486 329.417 93.9981C325.722 91.1681 326.94 92.2739 324.957 91.2473C324.15 90.8299 326.545 83.2811 328.998 80.6582C331.448 78.0353 331.439 77.9744 331.88 78.145C332.629 78.4313 334.119 76.7254 334.516 76.0491C335.128 75.0133 335.923 74.1086 336.752 73.2373C341.503 68.2535 341.637 64.1714 342.164 61.4084C342.616 59.0444 345.443 51.3829 347.728 46.2285C347.942 45.7442 347.942 46.4844 348.41 46.1432C350.86 44.3581 349.636 45.9513 352.961 44.3368C354.307 43.6848 355.522 42.1251 356.088 42.0764C356.981 42.0002 356.904 41.1777 356.562 40.3522C356.299 39.7124 357.198 39.9653 356.959 39.2494Z" fill="#011324"/>
<path d="M175 183.5C191.987 170.76 192.667 161 195 151.5C216.167 166.167 260 193.5 245.5 195.5C221.21 198.85 211.5 221 211.5 243.5L125 197C126.5 196 153 200 175 183.5Z" fill="#098CF1" stroke="#098CF1"/>
<path d="M211.217 356.5C213.306 390 239.917 390.322 246 392C235.961 404.403 195.856 435.037 195.5 426.5C195 414.5 184 394.5 165 392L211.217 356.5Z" fill="#098CF1"/>
<path d="M211.217 356.5C213.306 390 239.917 390.322 246 392C235.961 404.403 195.856 435.037 195.5 426.5C195 414.5 184 394.5 165 392L211.217 356.5ZM211.217 356.5C210.5 345 211.825 357.436 211.217 356.5Z" stroke="#098CF1"/>
<rect x="16" y="196" width="196" height="196" rx="28" fill="#098CF1"/>
<path d="M153.543 285.085C159.108 285.085 163.619 280.574 163.619 275.009C163.619 269.444 159.108 264.932 153.543 264.932C147.978 264.932 143.467 269.444 143.467 275.009C143.467 280.574 147.978 285.085 153.543 285.085Z" fill="#011324"/>
<path d="M178.774 238.532C178.697 237.434 178.075 236.947 177.279 235.072C177.158 234.79 176.98 234.552 176.698 234.417C172.644 232.493 174.189 231.509 166.917 232.678C161.1 233.615 145.374 228.684 141.327 228.66C134.065 228.62 137.313 229.144 131.603 227.932C130.84 227.77 131.616 226.565 130.185 226.696C129.09 226.796 117.133 223.437 115.796 223.155C108.538 221.634 105.975 224.972 104.03 224.694C100.547 224.197 99.6638 225.258 99.6705 223.881C99.6806 222.44 99.6638 221.724 99.4992 221.019C99.5899 220.989 99.6738 220.945 99.741 220.885C100.097 220.549 100.117 220.159 100.161 219.81C99.9963 220.116 99.7612 220.445 99.5126 220.505C99.4522 220.515 99.3984 220.509 99.3447 220.488C99.1398 219.867 98.8073 219.131 98.2766 217.869C98.2531 217.412 98.2497 216.901 98.2128 216.337C98.1792 215.941 98.1355 215.501 97.9541 214.98C97.85 214.664 97.6619 214.295 97.3898 213.956C97.4637 213.956 97.5376 213.956 97.6115 213.952C97.8399 213.935 98.0952 213.865 98.2699 213.694C98.4445 213.519 98.4949 213.301 98.505 213.102C98.4176 213.28 98.2833 213.435 98.1288 213.489C97.9776 213.542 97.8164 213.516 97.6585 213.458C97.3428 213.341 97.0372 213.116 96.7483 212.884C96.4729 212.659 96.2109 212.417 95.9422 212.169C95.8918 211.85 95.8213 211.527 95.7474 211.208C96.0631 211.235 96.4158 211.245 96.7416 211.04C97.1111 210.778 97.0875 210.362 97.0304 210.076C96.97 210.382 96.7953 210.677 96.5737 210.691C96.362 210.718 96.1101 210.6 95.8717 210.459C95.4619 210.207 95.0823 209.875 94.6994 209.522L94.6961 209.519C94.6322 209.461 94.5684 209.401 94.5046 209.341C94.3232 209.183 94.1989 209.038 93.9101 208.84L93.8832 208.894C93.8329 208.853 93.7825 208.813 93.7355 208.776C93.638 208.689 93.5541 208.595 93.4869 208.491C93.5104 208.491 93.5373 208.491 93.5608 208.491C94.0881 208.508 94.6591 208.34 94.995 207.98C94.5315 208.168 94.0747 208.088 93.6784 207.9C93.4063 207.779 93.151 207.617 92.8689 207.453C92.8689 207.446 92.8722 207.439 92.8722 207.433C93.0737 207.466 93.2921 207.49 93.5272 207.463C93.7388 207.436 93.9437 207.329 94.0646 207.181C94.1922 207.036 94.2628 206.868 94.3132 206.707C94.0915 206.976 93.7825 207.137 93.5339 207.04C93.2786 206.959 93.0301 206.758 92.7312 206.563C92.5699 206.462 92.4389 206.365 92.1938 206.277C92.0023 206.203 91.7873 206.15 91.5556 206.126C91.2634 206.096 90.9644 206.129 90.689 206.19C90.82 206.049 90.914 205.884 90.9308 205.703C90.8401 205.861 90.7058 205.958 90.558 206.019C90.6386 205.915 90.7125 205.8 90.773 205.669C90.8704 205.464 90.9006 205.229 90.8805 205.035C90.8368 204.648 90.7125 204.336 90.6218 204C90.5714 204.339 90.5479 204.705 90.4539 204.994C90.3565 205.283 90.165 205.387 89.8862 205.515C89.7015 205.609 89.5101 205.663 89.3018 205.71C89.3656 205.582 89.416 205.444 89.4529 205.297C89.5772 205.065 89.6679 204.816 89.6881 204.551C89.4261 205.011 89.0096 205.273 88.5696 205.495C88.3109 205.632 88.0154 205.757 87.7232 205.948C87.7198 205.864 87.6963 205.773 87.6392 205.676C87.4309 205.992 86.6349 206.563 86.7659 205.737C86.6853 205.797 86.6147 205.871 86.5543 205.951C86.5241 205.844 86.4837 205.737 86.4367 205.639V205.632C86.3561 205.266 86.1445 204.974 85.906 204.759C86.0404 205.058 86.0941 205.374 86.0337 205.653C85.9766 205.931 85.8355 206.177 85.6642 206.412C85.6071 206.492 85.5433 206.569 85.4795 206.65C85.4996 206.529 85.5131 206.405 85.5231 206.277C85.5433 205.955 85.5231 205.595 85.3485 205.286C85.1772 204.974 84.8648 204.826 84.586 204.769C84.8245 204.937 84.9992 205.172 85.0092 205.407C85.0294 205.642 84.9421 205.874 84.8245 206.099C84.6498 206.425 84.4147 206.727 84.1594 207.046C84.0587 206.939 83.9479 206.842 83.837 206.748C83.528 206.499 83.1686 206.304 82.7991 206.24C83.2828 206.583 83.5851 207.12 83.6993 207.624C83.6053 207.439 83.5011 207.261 83.3869 207.087C83.0779 206.623 82.6379 206.22 82.1408 206.066C82.5237 206.405 82.7084 206.855 82.7924 207.305C82.1945 206.989 81.6672 206.959 81.1869 206.855C80.6965 206.758 80.2229 206.617 79.8601 206.224C80.0785 206.919 80.757 207.342 81.3145 207.725C81.3145 207.742 81.3145 207.762 81.3145 207.779C81.244 207.779 81.1735 207.779 81.1029 207.775C81.0156 207.765 80.9283 207.759 80.8409 207.755C80.8208 207.755 80.804 207.755 80.7838 207.755C80.7435 207.752 80.7066 207.748 80.6663 207.742V207.752C80.3438 207.748 80.0315 207.772 79.7191 207.775C80.1994 207.97 80.7435 208.162 81.1197 208.424C80.9148 208.45 80.6696 208.457 80.626 208.444C80.6361 208.45 80.6461 208.461 80.6562 208.467C80.3337 208.471 80.0382 208.541 79.7695 208.605C79.2959 208.726 78.8659 208.897 78.3991 208.968C78.8592 209.092 79.353 209.112 79.7997 209.189C80.1389 209.24 80.4681 209.334 80.6898 209.472C80.5185 209.599 80.3438 209.737 80.1725 209.885C80.1591 209.898 80.1423 209.912 80.1289 209.925C80.0516 209.942 79.9777 209.959 79.9072 209.982C79.4437 210.12 79.0775 210.305 78.698 210.405C78.3252 210.516 77.9188 210.513 77.5258 210.321C77.7676 210.62 78.1606 210.832 78.5737 210.912C78.3554 211.003 78.1371 211.094 77.9188 211.174C77.9658 211.232 78.0162 211.282 78.0699 211.322C77.6433 211.436 77.1865 211.433 76.7264 211.211C77.032 211.581 77.5191 211.836 78.043 211.92C78.4058 211.981 78.7786 211.984 79.1481 211.944C78.9499 212.054 78.7685 212.175 78.6375 212.3C78.1908 212.511 77.724 212.679 77.2101 212.743C77.6333 212.871 78.0867 212.921 78.5469 212.924C78.614 212.995 78.7115 213.065 78.8492 213.133C78.6241 213.24 78.5267 213.445 78.4192 213.643C78.0699 213.848 77.6635 213.976 77.2134 213.929C77.4754 214.083 77.7811 214.16 78.1035 214.181C78.2748 214.51 78.3017 214.856 78.2479 215.218C77.9255 215.531 77.4653 215.776 76.9716 215.884C77.3679 215.957 77.7878 215.964 78.2143 215.867C78.2378 215.904 78.2546 215.944 78.2647 215.991C78.4024 216.639 78.5435 217.287 78.7014 217.929C78.7484 218.063 78.7988 218.198 78.8492 218.329C78.8525 218.349 78.8559 218.369 78.8626 218.393C79.007 219.051 79.1649 219.655 79.2354 220.27C79.2656 220.572 79.2824 220.878 79.2119 221.143C79.1615 221.412 78.9231 221.617 78.5737 221.59C78.7215 221.661 78.8962 221.708 79.0876 221.667C79.2791 221.627 79.447 221.489 79.5646 221.345C79.7023 221.17 79.8031 220.986 79.8837 220.794C79.924 220.935 79.8803 221.053 79.7963 221.13C79.84 221.147 79.8837 221.164 79.9307 221.18C79.887 221.62 79.7023 222.101 79.4067 222.5C79.8501 222.238 80.2565 221.866 80.5353 221.362C80.589 221.385 80.636 221.412 80.6797 221.442C80.589 221.808 80.5621 222.114 80.5084 222.41C80.186 222.497 80.018 222.803 80.102 223.249C79.924 223.38 79.7124 223.491 79.5075 223.605C79.7292 223.585 79.9508 223.572 80.1792 223.525C80.3774 224.056 80.8745 224.727 81.7881 225.453C82.2987 225.856 82.8428 226.215 83.2996 226.685C83.7597 227.159 84.0822 227.005 84.3442 227.068C84.4987 227.394 84.5927 227.747 84.5659 228.163C84.6532 227.985 84.7237 227.791 84.7674 227.586C85.2477 228.728 86.4569 230.377 86.1412 230.928C85.2712 232.436 84.2535 233.773 82.4431 234.226C77.9524 235.348 75.1746 239.667 73.643 244.037C72.9746 245.938 72.5245 247.917 71.6445 249.744C69.6695 253.855 69.3874 254.376 69.5385 255.444C69.6326 256.089 67.9968 258.238 67.5199 258.762C66.6936 259.672 66.9085 259.148 66.183 259.4C64.0871 260.133 59.0892 266.854 56.6138 266.152C56.3484 266.078 56.0428 266.135 55.8748 266.323C55.3945 266.867 55.0653 266.612 53.2684 267.357C51.73 267.996 52.4522 268.953 51.9181 269.369C51.0683 270.031 50.4134 270.888 49.6744 271.66C49.4225 271.922 49.3251 272.251 49.3151 272.624C49.2882 273.628 49.0161 274.253 49.0161 274.69C49.2983 275.14 49.2815 275.644 49.1807 276.117C49.0027 276.967 49.3352 277.713 49.5737 278.472C49.8558 279.375 50.7358 278.609 50.7896 278.814C50.9239 279.325 51.3639 279.654 51.5285 280.144C51.73 280.756 52.469 280.853 52.7075 280.007C52.9728 279.07 51.9585 278.391 52.3481 277.427C52.5194 277.004 52.8183 276.557 53.3792 276.453C53.7991 276.376 53.3859 276.416 55.9588 275.059C57.2049 274.401 58.1387 273.45 58.6257 272.127C58.9985 271.113 59.6569 271.24 64.4902 270.364C74.298 268.58 74.0662 264.905 76.8977 260.814C77.4385 260.032 78.3722 260.677 79.6822 259.101C83.2358 254.819 82.789 254.661 83.0376 255.188C84.7271 258.729 87.1656 261.735 87.3067 261.809C88.5629 262.477 88.9021 264.509 91.1626 266.367C94.2158 268.876 94.4878 271.375 93.3727 273.598C92.3046 275.728 94.7767 276.611 93.8295 277.259C93.3895 277.562 93.6145 278.552 93.5843 278.74C92.1467 287.692 93.8261 283.396 87.9012 295.303C85.2612 300.61 83.5078 308.063 79.8266 314.646C79.7124 314.848 79.7963 314.975 79.9609 315.09C84.3845 318.25 82.8092 315.415 82.9469 320.783C82.9872 322.405 81.9896 322.872 81.8587 325.462C81.5765 331.014 82.6648 332.606 83.5448 334.268C83.884 334.907 83.0813 334.467 83.1753 335.078C84.1091 341.319 83.9949 336.196 84.4147 346.212C84.5726 349.981 86.9338 371.588 85.1134 370.567C84.0721 369.983 84.2031 370.54 83.0981 372.405C82.4632 373.473 80.3505 374.453 79.8568 374.433C79.0473 374.403 78.1203 375.061 75.094 375.599C71.7318 376.197 70.8686 378.78 70.835 379.428C70.7376 381.268 72.6622 381.742 72.8637 382.461C72.8872 382.541 72.988 382.588 73.0821 382.585C73.8076 382.562 74.429 382.944 75.1142 383.089C75.2452 383.116 75.4097 383.096 75.4635 383.27C75.5877 383.657 75.9438 383.63 76.1554 383.509C76.6357 383.237 77.1026 383.371 77.5829 383.405C78.3252 383.462 77.7239 384.09 78.5435 383.989C79.4369 383.882 78.6879 383.472 79.3664 383.405C81.8049 383.156 88.9491 382.044 89.1574 383.042C89.238 383.432 89.5235 383.465 89.8459 383.435C90.9644 383.327 90.2188 382.733 90.8469 382.693C93.5776 382.508 93.7758 382.303 93.8765 382.803C93.9403 383.126 94.1553 383.23 94.4643 383.163C95.7138 382.894 94.817 382.649 95.5123 382.249C95.8985 382.028 97.8433 381.336 97.2017 380.664C96.6711 380.11 98.1724 378.175 97.0976 374.064C96.8591 373.15 96.3117 372.347 96.1975 371.39C96.1504 370.994 96.0161 370.604 95.9052 370.218C95.7608 369.711 95.7071 369.681 95.2771 369.986C94.3837 370.614 95.7474 356.316 97.5846 351.603C99.7679 346.001 97.9306 341.436 97.4604 338.289C96.6778 333.036 95.781 335.41 95.2301 333.53C94.4274 330.775 93.8732 329.059 97.6451 323.124C97.7828 322.909 97.9138 322.919 98.1221 322.976C102.777 324.246 102.841 323.967 103.14 322.859C103.597 321.156 103.016 322.331 104.601 319.04C104.631 318.979 104.638 318.892 104.725 318.892C104.846 318.892 104.836 319.013 104.863 319.08C105.572 320.726 104.833 321.451 106.14 321.505C106.717 321.528 106.257 321.915 107.594 321.508C108.716 321.169 108.917 325.525 112.918 330.271C113.643 331.135 114.335 332.028 115.279 332.67C117.069 333.886 118.883 333.986 120.546 333.153C121.211 332.821 121.268 333.519 122.474 333.066C125.067 332.089 124.616 331.202 128.865 327C133.453 322.462 132.127 321.441 138.388 316.111C138.532 315.986 138.64 315.953 138.794 316.094C139.049 316.326 139.362 316.443 139.57 316.799C139.728 317.071 140.161 317.172 140.4 317.542C143.614 322.516 143.1 326.839 145.898 327.769C146.822 328.075 147.772 328.024 148.706 328.139C149.801 328.273 151.208 326.758 151.789 325.821C156.512 318.173 150.11 311.936 147.947 306.028C146.341 301.634 145.109 301.043 145.186 300.338C145.209 300.103 145.041 299.867 144.816 299.81C144.36 299.696 144.088 299.343 143.745 299.081C143.003 298.507 141.491 298.571 141.149 299.048C140.483 299.968 138.676 299.827 137.242 302.131C136.604 303.156 135.983 304.187 135.314 305.191C134.592 306.273 136.409 305.755 135.714 306.296C134.505 307.23 133.349 308.248 131.969 308.933C126.9 311.452 127.589 311.254 126.672 311.486C125.755 311.717 124.805 311.815 123.908 312.141C123.061 312.446 119.558 302.245 119.286 296.072C119.205 294.218 119.827 289.778 119.669 288.599C119.299 285.807 118.023 281.565 118.453 280.151C118.493 280.02 118.386 278.358 117.395 277.827C117.335 277.793 117.291 277.733 117.237 277.686C116.716 277.226 117.61 277.404 118.728 276C119.655 274.838 120.018 273.477 119.901 272.003C119.38 265.665 119.941 271.546 121.486 258.933C121.772 256.613 120.898 251.984 119.222 248.901C118.738 248.014 119.316 247.863 118.715 240.5C118.497 237.813 117.879 237.541 118.581 237.618C119.373 237.706 126.729 238.982 128.227 239.006C129.826 239.032 129.779 239.432 130.061 238.448C130.195 237.985 130.441 237.877 130.854 237.938C142.808 239.671 140.96 241.552 157.58 238.831C165.107 237.598 163.948 238.445 165.785 239.556C168.338 241.102 170.142 240.191 173.114 240.749C173.719 240.863 173.947 241.421 174.411 241.683C174.431 241.693 174.445 241.76 174.431 241.777C174.193 242.113 174.31 242.616 173.773 242.835C172.58 243.315 172.359 245.035 173.477 244.742C174.183 244.558 174.068 245.082 174.935 244.427C176.07 243.564 176.695 243.449 176.893 242.872C177.138 242.16 177.686 241.582 177.766 240.809C177.787 240.631 177.85 240.554 178.075 240.584C179.52 240.782 178.821 239.224 178.774 238.532Z" fill="#011324"/>
<path d="M194 420C194 404.536 206.536 392 222 392H390V588H222C206.536 588 194 575.464 194 560V420Z" fill="#098CF1"/>
<path d="M238.333 459.643C242.074 459.643 245.107 456.611 245.107 452.87C245.107 449.129 242.074 446.096 238.333 446.096C234.592 446.096 231.56 449.129 231.56 452.87C231.56 456.611 234.592 459.643 238.333 459.643Z" fill="#011324"/>
<path d="M356.864 522.993C356.497 522.218 356.553 522.237 356.393 521.995C356.005 521.41 355.953 521.413 355.979 521.35C357.727 522.011 357.103 520.739 354.884 518.84C353.818 518.272 352.3 518.173 351.243 517.59C347.96 516.329 347.796 516.347 347.211 515.215C346.783 514.391 346.354 514.98 344.938 513.357C341.687 510.246 339.049 506.402 335.908 503.402C334.205 501.962 334.486 502.666 332.073 499.62C331.947 499.46 332.001 499.544 332.185 499.201C332.353 498.886 331.852 498.538 331.736 498.353C328.416 493.323 326.918 492.967 324.779 488.762C323.855 487.219 325.068 484.857 325.381 481.425C325.338 479.45 325.446 478.621 328.075 476.327C328.362 476.092 329.668 476.223 330.801 475.403C330.812 475.431 330.825 475.459 330.836 475.487C331.477 474.684 332.692 474.199 332.96 473.013C333.135 473.314 333.562 473.495 333.847 473.251C333.292 473.383 333.251 472.741 333.262 472.338C333.534 472.029 333.767 471.697 333.961 471.351C334.203 471.647 334.671 471.531 334.831 471.28C334.453 471.479 334.22 471.295 334.186 470.92C334.434 470.376 334.592 469.804 334.671 469.227C334.81 469.316 334.959 469.376 335.11 469.391C334.671 469.165 334.697 468.757 334.73 468.342C334.896 468.604 335.243 468.642 335.5 468.53C334.622 468.487 335.17 467.099 334.423 466.438C334.514 466.434 334.6 466.419 334.674 466.372C334.561 466.387 334.466 466.359 334.38 466.311C334.38 466.309 334.378 466.305 334.378 466.303C334.887 466.346 335.192 465.884 335.438 465.534C334.978 465.884 334.451 465.998 334.037 465.528C334.285 465.45 334.559 465.413 334.782 465.269C333.944 465.405 333.521 464.718 333.001 464.226C332.953 464.189 332.912 464.146 332.865 464.107C333.027 463.891 333.16 463.639 333.167 463.388C333.029 463.645 332.83 463.822 332.56 463.872C332.487 463.818 332.416 463.762 332.338 463.71C332.658 463.505 332.835 463.032 332.636 462.706C332.683 463.216 332.213 463.384 331.792 463.382C331.634 463.298 331.472 463.216 331.306 463.142C331.321 462.873 331.278 462.592 331.162 462.365C331.17 462.601 331.112 462.825 331.019 463.026C330.998 463.017 330.978 463.009 330.957 463C331.071 462.657 331.106 462.272 330.989 461.953C330.965 462.288 330.805 462.562 330.605 462.786C330.475 461.998 329.89 461.614 329.998 460.833C329.728 461.223 329.778 461.744 329.802 462.184C329.793 462.19 329.782 462.197 329.774 462.206C329.687 462.093 329.612 461.975 329.536 461.856C329.534 461.858 329.532 461.858 329.532 461.86C329.405 461.692 329.271 461.539 329.141 461.379C329.232 461.705 329.348 462.065 329.361 462.365C329.266 462.27 329.165 462.145 329.154 462.117C329.154 462.126 329.154 462.134 329.154 462.143C328.822 461.729 328.362 461.519 327.995 461.172C328.179 461.627 328.574 462.059 328.638 462.534C327.958 462.404 327.151 461.949 326.942 461.256C326.883 461.5 326.929 461.789 327.052 462.035C326.918 461.957 326.786 461.88 326.655 461.8C326.644 461.847 326.639 461.893 326.637 461.936C326.406 461.759 326.227 461.521 326.16 461.193C326.026 461.744 326.352 462.346 326.743 462.741C326.277 462.598 325.903 462.411 325.558 462.054C325.66 462.324 325.815 462.581 325.996 462.819C325.988 462.873 325.992 462.939 326.003 463.017C325.985 463.026 325.966 463.03 325.949 463.039C325.824 462.998 325.696 463.019 325.571 463.039C325.515 463.015 325.459 462.989 325.405 462.959C325.45 463.052 325.491 463.149 325.536 463.242C324.304 464.036 321.873 465.8 321.755 466.659C321.664 467.285 320.822 466.95 319.782 469.184C318.487 471.964 318.685 471.936 318.528 471.794C317.198 470.708 316.607 468.055 316.129 467.744C314.021 464.994 311.113 464.681 308.015 465.925C306.53 466.495 305.382 467.356 303.972 468.386C302.017 469.737 299.616 470.203 298.932 471.39C295.794 472.647 295.109 471.785 291.982 472.953C287.995 474.188 285.102 475.079 282.803 475.081C279.818 472.493 279.857 472.58 279.738 472.29C279.045 471.082 277.157 470.641 276.045 470.712C274.996 470.766 274.743 470.112 272.676 471.695C271.89 471.669 269.526 470.866 269.036 470.892C268.065 470.892 266.97 471.202 266.875 471.079C266.47 470.557 264.656 470.197 264.572 470.184C262.589 469.894 264.002 470.253 259.357 468.56C253.862 466.559 248.921 466.905 243.997 464.498C243.649 464.327 243.608 463.52 241.685 463.281C241.206 463.22 241.363 462.914 240.761 462.525C240.418 462.303 240.399 462.279 240.207 462.212C239.958 462.124 240.04 462.352 239.809 462.313C239.622 462.283 239.684 462.257 239.492 462.145C239.22 461.985 239.149 462.216 239.041 462.208C238.834 462.247 238.609 462.134 238.415 462.132C237.713 462.247 237.193 462.016 236.498 461.981C234.935 461.739 234.238 460.446 231.931 459.639C231.816 459.639 231.702 459.639 231.585 459.639C231.561 459.682 231.559 459.669 231.149 459.784C230.37 460.002 230.312 460.513 230.163 460.384C230.087 460.28 229.66 460.319 229.658 460.515C229.673 461.033 229.943 460.91 229.353 461.202C229.174 461.29 229.388 461.459 229.273 461.651C229.258 461.677 229.263 461.688 229.433 462.24C229.511 462.49 229.63 462.199 229.757 462.536C229.858 462.806 229.85 462.788 230.104 462.778C230.318 462.769 230.236 462.737 230.966 465.517C231.028 465.754 230.821 465.659 230.763 465.789C230.722 465.879 230.758 465.987 230.802 466.199C230.888 466.618 231.162 466.38 231.22 466.514C231.352 466.814 231.29 466.762 230.804 467.006C230.668 467.194 230.847 467.595 230.959 467.801C231.041 467.906 230.903 468.109 231.482 468.092C231.728 468.085 231.849 468.699 232.062 468.627C232.44 468.504 232.254 468.552 232.416 469.152C232.488 469.415 232.503 469.387 232.79 469.391C232.9 469.394 232.829 469.415 232.887 469.694C232.973 470.104 233.038 470.067 232.852 470.19C232.677 470.307 232.857 470.874 232.936 471.069C233.027 471.287 233.474 471.062 233.575 471.259C233.873 471.835 234.342 471.31 234.62 471.446C235.665 471.956 237.182 471.658 237.28 471.658C238.041 471.654 238.337 471.075 240.362 471.164C241.355 471.354 240.742 470.6 241.184 470.622C244.405 471.794 248.875 474.272 251.297 476.158C255.185 479.869 257.933 478.729 261.537 479.934C261.906 480.027 262.019 479.96 262.781 479.923C262.988 480.109 263.256 480.227 263.562 480.227C264.298 480.23 265.028 480.318 265.757 480.391C265.412 482.239 265.643 483.852 266.545 485.505C266.664 485.665 267.292 486.291 267.614 486.338C268.641 486.494 270.897 488.657 271.614 489.479C275.337 493.753 276.993 497.036 281.605 497.705C281.992 497.761 282.195 498.085 282.121 498.212C281.873 498.653 278.793 502.469 277.759 504.284C276.002 507.069 273.889 508.446 272.788 509.996C272.524 510.123 272.019 510.328 271.808 511.347C271.063 512.794 272.177 513.795 272.427 514.54C272.401 514.555 272.373 514.564 272.35 514.583C272.183 514.704 272.011 514.814 271.829 514.913C271.747 514.959 271.663 515.002 271.577 515.045C271.54 515.062 271.391 515.129 271.372 515.138C271.331 515.155 271.29 515.17 271.247 515.185C271.158 515.218 271.072 515.25 270.983 515.28C270.795 515.345 270.605 515.408 270.418 515.468C269.986 515.606 269.55 515.746 269.125 515.913C269.06 515.919 268.997 515.926 268.937 515.939C268.861 515.921 268.781 515.91 268.697 515.906C268.641 515.839 268.566 515.787 268.443 515.77C267.666 515.636 267.713 515.559 267.409 515.619C264.512 516.198 261.837 515.06 256.512 517.65C254.36 518.697 253.471 518.814 248.564 520.374C248.182 520.495 244.513 521.592 244.176 521.398C243.718 521.134 242.402 521.139 241.871 521.136C241.618 521.134 238.46 520.549 236.569 521.838C236.302 522.019 235.751 522.026 235.166 522.788C234.629 523.489 234.607 523.56 234.454 523.621C234.27 523.819 233.893 524.629 233.673 524.62C232.956 524.884 228.641 526.267 227.708 527.478C227.547 527.796 227.383 528.709 227.38 528.752C227.365 528.944 226.782 528.817 227.089 529.481C227.128 529.563 227.272 529.477 227.262 529.762C227.335 531.346 227.654 532.816 228.026 533.024C228.391 533.086 228.017 533.226 229.032 533.686C229.535 533.719 230.515 533.926 231.184 533.902C234.478 533.589 236.043 529.784 239.235 529.101C239.425 529.028 239.518 529.166 239.6 529.035C239.699 528.832 240.239 528.963 240.282 528.51C240.405 528.048 240.319 528.042 240.645 527.949C250.509 525.652 259.023 526.96 270.141 525.056C270.251 525.089 270.364 525.108 270.482 525.108C270.605 525.108 270.731 525.108 270.854 525.108C271.02 525.115 271.173 525.08 271.318 525.004C271.376 524.985 271.428 524.957 271.48 524.929C271.59 524.961 271.708 524.985 271.842 524.985C272.274 524.985 272.581 524.795 272.773 524.525C272.809 524.54 272.844 524.56 272.883 524.571C272.989 524.586 273.096 524.599 273.202 524.614C273.42 524.614 273.621 524.558 273.809 524.45C273.93 524.391 274.053 524.34 274.176 524.286C276.244 523.776 279.758 521.346 280.634 520.823C281.603 520.912 284.207 522.27 284.617 521.262C289.594 515.297 294.06 508.88 295.103 506.314C296.648 503.298 295.213 504.91 297.216 502.78C297.81 501.895 298.66 502.912 299.437 502.691C301.84 501.774 302.416 500.237 302.915 499.9C305.073 498.439 303.577 499.115 305.641 498.275C311.469 495.903 310.699 496.749 312.449 496.421C315.993 495.829 315.726 494.565 319.812 497.122C321.623 498.212 321.12 497.701 322.476 499.771C324.125 502.288 325.731 503.346 326.223 503.918C328.798 503.503 330.855 509.575 334.754 511.898C352.149 521.829 339.796 516.141 348.208 526.049C348.864 526.865 350.157 525.253 348.387 523.8C348.214 523.632 347.219 522.468 347.75 522.015C348.331 521.434 348.173 521.287 348.62 521.445C349.354 521.702 349.471 521.713 349.643 521.937C350.658 523.271 350.755 523.286 351.13 523.955C351.433 524.493 351.599 524.771 351.746 524.963C351.987 525.274 352.08 526.492 352.967 526.684C354.683 526.712 352.115 522.691 352.031 522.408C350.882 520.748 351.202 521.156 352.376 522.218C352.646 522.533 353.725 524.143 353.995 525.296C354.418 526.256 355.508 526.125 355.245 525.225C355.139 523.964 354.688 523.165 354.029 521.775C353.857 521.296 352.682 520.338 353.807 521.052C354.537 521.961 355.078 522.136 355.223 522.505C355.931 524.309 357.464 524.258 356.864 522.993ZM292.362 479.759C292.038 479.668 291.14 479.815 290.68 479.904C289.137 480.197 288.599 480.961 288.407 480.7C286.29 477.823 287.516 480.024 293.227 479.368C293.527 479.334 292.498 479.798 292.362 479.759Z" fill="#011324"/>
<rect width="194" height="196" rx="28" fill="#011324"/>
<path d="M69.1459 91V74.08H73.5859V87.328H80.8339V91H69.1459ZM88.7598 91.264C87.3998 91.264 86.2238 91.008 85.2318 90.496C84.2398 89.984 83.4718 89.256 82.9277 88.312C82.3838 87.352 82.1118 86.216 82.1118 84.904C82.1118 83.576 82.3838 82.44 82.9277 81.496C83.4718 80.552 84.2398 79.824 85.2318 79.312C86.2238 78.8 87.3998 78.544 88.7598 78.544C90.1038 78.544 91.2718 78.8 92.2638 79.312C93.2558 79.824 94.0238 80.56 94.5677 81.52C95.1118 82.464 95.3838 83.592 95.3838 84.904C95.3838 86.2 95.1118 87.328 94.5677 88.288C94.0238 89.248 93.2558 89.984 92.2638 90.496C91.2718 91.008 90.1038 91.264 88.7598 91.264ZM88.7598 88.096C89.4638 88.096 90.0238 87.848 90.4398 87.352C90.8558 86.84 91.0638 86.024 91.0638 84.904C91.0638 83.784 90.8558 82.976 90.4398 82.48C90.0238 81.968 89.4638 81.712 88.7598 81.712C88.0398 81.712 87.4718 81.968 87.0558 82.48C86.6398 82.976 86.4318 83.784 86.4318 84.904C86.4318 86.024 86.6398 86.84 87.0558 87.352C87.4718 87.848 88.0398 88.096 88.7598 88.096ZM103.452 96.376C102.236 96.376 101.164 96.264 100.236 96.04C99.3243 95.832 98.5003 95.504 97.7643 95.056L98.5083 92.032C98.9403 92.288 99.4123 92.504 99.9243 92.68C100.436 92.856 100.964 92.984 101.508 93.064C102.068 93.16 102.596 93.208 103.092 93.208C104.116 93.208 104.876 92.968 105.372 92.488C105.868 92.024 106.116 91.36 106.116 90.496V88.36H106.356C106.1 89.064 105.596 89.632 104.844 90.064C104.092 90.48 103.26 90.688 102.348 90.688C101.26 90.688 100.308 90.448 99.4923 89.968C98.6923 89.472 98.0603 88.768 97.5963 87.856C97.1483 86.944 96.9243 85.864 96.9243 84.616C96.9243 83.368 97.1483 82.288 97.5963 81.376C98.0603 80.464 98.6923 79.768 99.4923 79.288C100.308 78.792 101.26 78.544 102.348 78.544C103.292 78.544 104.124 78.752 104.844 79.168C105.564 79.584 106.052 80.136 106.308 80.824L106.116 80.776L106.38 78.808H110.484C110.42 79.352 110.372 79.904 110.34 80.464C110.308 81.024 110.292 81.576 110.292 82.12V90.016C110.292 92.064 109.708 93.632 108.54 94.72C107.372 95.824 105.676 96.376 103.452 96.376ZM103.668 87.52C104.404 87.52 104.988 87.272 105.42 86.776C105.852 86.28 106.068 85.56 106.068 84.616C106.068 83.656 105.852 82.936 105.42 82.456C104.988 81.96 104.404 81.712 103.668 81.712C102.916 81.712 102.324 81.96 101.892 82.456C101.46 82.936 101.244 83.656 101.244 84.616C101.244 85.56 101.46 86.28 101.892 86.776C102.324 87.272 102.916 87.52 103.668 87.52ZM119.018 91.264C117.658 91.264 116.482 91.008 115.49 90.496C114.498 89.984 113.73 89.256 113.186 88.312C112.642 87.352 112.37 86.216 112.37 84.904C112.37 83.576 112.642 82.44 113.186 81.496C113.73 80.552 114.498 79.824 115.49 79.312C116.482 78.8 117.658 78.544 119.018 78.544C120.362 78.544 121.53 78.8 122.522 79.312C123.514 79.824 124.282 80.56 124.826 81.52C125.37 82.464 125.642 83.592 125.642 84.904C125.642 86.2 125.37 87.328 124.826 88.288C124.282 89.248 123.514 89.984 122.522 90.496C121.53 91.008 120.362 91.264 119.018 91.264ZM119.018 88.096C119.722 88.096 120.282 87.848 120.698 87.352C121.114 86.84 121.322 86.024 121.322 84.904C121.322 83.784 121.114 82.976 120.698 82.48C120.282 81.968 119.722 81.712 119.018 81.712C118.298 81.712 117.73 81.968 117.314 82.48C116.898 82.976 116.69 83.784 116.69 84.904C116.69 86.024 116.898 86.84 117.314 87.352C117.73 87.848 118.298 88.096 119.018 88.096ZM48.2865 123.264C46.4465 123.264 44.8545 122.904 43.5105 122.184C42.1825 121.464 41.1505 120.448 40.4145 119.136C39.6945 117.824 39.3345 116.288 39.3345 114.528C39.3345 112.768 39.6945 111.24 40.4145 109.944C41.1505 108.632 42.1825 107.616 43.5105 106.896C44.8545 106.176 46.4465 105.816 48.2865 105.816C49.4545 105.816 50.5185 105.976 51.4785 106.296C52.4385 106.6 53.2465 107.04 53.9025 107.616L52.5825 111.096C51.8465 110.568 51.1665 110.2 50.5425 109.992C49.9345 109.768 49.2385 109.656 48.4545 109.656C47.0145 109.656 45.9025 110.08 45.1185 110.928C44.3505 111.76 43.9665 112.96 43.9665 114.528C43.9665 116.112 44.3505 117.328 45.1185 118.176C45.9025 119.008 47.0145 119.424 48.4545 119.424C49.2385 119.424 49.9345 119.32 50.5425 119.112C51.1665 118.888 51.8465 118.512 52.5825 117.984L53.9025 121.464C53.2465 122.04 52.4385 122.488 51.4785 122.808C50.5185 123.112 49.4545 123.264 48.2865 123.264ZM55.9802 123V105.336H60.2522V112.944H59.8922C60.2922 112.16 60.8602 111.568 61.5962 111.168C62.3322 110.752 63.1722 110.544 64.1162 110.544C65.5402 110.544 66.6042 110.968 67.3082 111.816C68.0122 112.664 68.3642 113.952 68.3642 115.68V123H64.0922V115.872C64.0922 115.136 63.9562 114.608 63.6842 114.288C63.4282 113.968 63.0362 113.808 62.5082 113.808C61.8202 113.808 61.2682 114.024 60.8522 114.456C60.4522 114.888 60.2522 115.456 60.2522 116.16V123H55.9802ZM75.7333 123.264C74.6773 123.264 73.7493 123.016 72.9493 122.52C72.1493 122.008 71.5173 121.272 71.0533 120.312C70.6053 119.352 70.3813 118.216 70.3813 116.904C70.3813 115.576 70.6053 114.44 71.0533 113.496C71.5173 112.536 72.1493 111.808 72.9493 111.312C73.7493 110.8 74.6773 110.544 75.7333 110.544C76.6773 110.544 77.5253 110.768 78.2773 111.216C79.0453 111.664 79.5493 112.248 79.7893 112.968H79.5493L79.8133 110.808H83.9173C83.8693 111.352 83.8213 111.904 83.7733 112.464C83.7413 113.024 83.7253 113.576 83.7253 114.12V123H79.5013L79.4533 120.936H79.7413C79.5013 121.64 78.9973 122.208 78.2293 122.64C77.4773 123.056 76.6453 123.264 75.7333 123.264ZM77.1013 120.096C77.8213 120.096 78.4053 119.848 78.8533 119.352C79.3013 118.84 79.5253 118.024 79.5253 116.904C79.5253 115.784 79.3013 114.976 78.8533 114.48C78.4053 113.968 77.8213 113.712 77.1013 113.712C76.3813 113.712 75.7973 113.968 75.3493 114.48C74.9013 114.976 74.6773 115.784 74.6773 116.904C74.6773 118.024 74.8933 118.84 75.3253 119.352C75.7733 119.848 76.3653 120.096 77.1013 120.096ZM86.3786 123V105.336H90.6506V123H86.3786ZM93.2927 123V105.336H97.5647V123H93.2927ZM106.639 123.264C104.431 123.264 102.711 122.696 101.479 121.56C100.263 120.424 99.6547 118.864 99.6547 116.88C99.6547 115.648 99.9107 114.552 100.423 113.592C100.935 112.632 101.655 111.888 102.583 111.36C103.511 110.816 104.599 110.544 105.847 110.544C107.079 110.544 108.103 110.816 108.919 111.36C109.751 111.888 110.375 112.624 110.791 113.568C111.207 114.496 111.415 115.576 111.415 116.808V117.72H103.231V115.704H108.271L107.863 116.04C107.863 115.128 107.687 114.456 107.335 114.024C106.999 113.576 106.519 113.352 105.895 113.352C105.175 113.352 104.623 113.624 104.239 114.168C103.871 114.696 103.687 115.496 103.687 116.568V117C103.687 118.072 103.951 118.856 104.479 119.352C105.007 119.848 105.767 120.096 106.759 120.096C107.399 120.096 107.999 120.024 108.559 119.88C109.135 119.736 109.679 119.504 110.191 119.184L111.295 121.968C110.687 122.384 109.983 122.704 109.183 122.928C108.383 123.152 107.535 123.264 106.639 123.264ZM113.449 123V114.12C113.449 113.576 113.433 113.024 113.401 112.464C113.369 111.904 113.321 111.352 113.257 110.808H117.385L117.625 112.92H117.361C117.761 112.152 118.329 111.568 119.065 111.168C119.801 110.752 120.633 110.544 121.561 110.544C122.985 110.544 124.049 110.968 124.753 111.816C125.473 112.648 125.833 113.952 125.833 115.728V123H121.561V115.92C121.561 115.136 121.425 114.592 121.153 114.288C120.881 113.968 120.489 113.808 119.977 113.808C119.305 113.808 118.761 114.032 118.345 114.48C117.929 114.912 117.721 115.488 117.721 116.208V123H113.449ZM134.378 128.376C133.162 128.376 132.09 128.264 131.162 128.04C130.25 127.832 129.426 127.504 128.69 127.056L129.434 124.032C129.866 124.288 130.338 124.504 130.85 124.68C131.362 124.856 131.89 124.984 132.434 125.064C132.994 125.16 133.522 125.208 134.018 125.208C135.042 125.208 135.802 124.968 136.298 124.488C136.794 124.024 137.042 123.36 137.042 122.496V120.36H137.282C137.026 121.064 136.522 121.632 135.77 122.064C135.018 122.48 134.186 122.688 133.274 122.688C132.186 122.688 131.234 122.448 130.418 121.968C129.618 121.472 128.986 120.768 128.522 119.856C128.074 118.944 127.85 117.864 127.85 116.616C127.85 115.368 128.074 114.288 128.522 113.376C128.986 112.464 129.618 111.768 130.418 111.288C131.234 110.792 132.186 110.544 133.274 110.544C134.218 110.544 135.05 110.752 135.77 111.168C136.49 111.584 136.978 112.136 137.234 112.824L137.042 112.776L137.306 110.808H141.41C141.346 111.352 141.298 111.904 141.266 112.464C141.234 113.024 141.218 113.576 141.218 114.12V122.016C141.218 124.064 140.634 125.632 139.466 126.72C138.298 127.824 136.602 128.376 134.378 128.376ZM134.594 119.52C135.33 119.52 135.914 119.272 136.346 118.776C136.778 118.28 136.994 117.56 136.994 116.616C136.994 115.656 136.778 114.936 136.346 114.456C135.914 113.96 135.33 113.712 134.594 113.712C133.842 113.712 133.25 113.96 132.818 114.456C132.386 114.936 132.17 115.656 132.17 116.616C132.17 117.56 132.386 118.28 132.818 118.776C133.25 119.272 133.842 119.52 134.594 119.52ZM150.279 123.264C148.071 123.264 146.351 122.696 145.119 121.56C143.903 120.424 143.295 118.864 143.295 116.88C143.295 115.648 143.551 114.552 144.063 113.592C144.575 112.632 145.295 111.888 146.223 111.36C147.151 110.816 148.239 110.544 149.487 110.544C150.719 110.544 151.743 110.816 152.559 111.36C153.391 111.888 154.015 112.624 154.431 113.568C154.847 114.496 155.055 115.576 155.055 116.808V117.72H146.871V115.704H151.911L151.503 116.04C151.503 115.128 151.327 114.456 150.975 114.024C150.639 113.576 150.159 113.352 149.535 113.352C148.815 113.352 148.263 113.624 147.879 114.168C147.511 114.696 147.327 115.496 147.327 116.568V117C147.327 118.072 147.591 118.856 148.119 119.352C148.647 119.848 149.407 120.096 150.399 120.096C151.039 120.096 151.639 120.024 152.199 119.88C152.775 119.736 153.319 119.504 153.831 119.184L154.935 121.968C154.327 122.384 153.623 122.704 152.823 122.928C152.023 123.152 151.175 123.264 150.279 123.264Z" fill="white"/>
<path d="M212 224C212 208.536 224.536 196 240 196H390V393H240C224.536 393 212 380.464 212 365V224Z" fill="#011324"/>
<path d="M276.02 287.764C274.052 287.764 272.388 287.404 271.028 286.684C269.684 285.964 268.66 284.956 267.956 283.66C267.268 282.364 266.924 280.852 266.924 279.124C266.924 277.332 267.3 275.78 268.052 274.468C268.82 273.14 269.916 272.116 271.34 271.396C272.764 270.676 274.476 270.316 276.476 270.316C277.708 270.316 278.796 270.46 279.74 270.748C280.7 271.036 281.524 271.452 282.212 271.996L280.844 275.38C280.348 275.044 279.876 274.788 279.428 274.612C278.996 274.42 278.548 274.284 278.084 274.204C277.636 274.124 277.116 274.084 276.524 274.084C274.86 274.084 273.612 274.516 272.78 275.38C271.964 276.228 271.556 277.476 271.556 279.124C271.556 280.756 271.932 281.988 272.684 282.82C273.436 283.652 274.628 284.068 276.26 284.068C276.756 284.068 277.292 284.02 277.868 283.924C278.46 283.828 279.06 283.684 279.668 283.492L278.876 285.076V281.044H275.372V277.972H282.5V286.444C281.588 286.876 280.564 287.204 279.428 287.428C278.308 287.652 277.172 287.764 276.02 287.764ZM289.628 287.764C288.076 287.764 286.924 287.34 286.172 286.492C285.436 285.628 285.068 284.324 285.068 282.58V275.308H289.34V282.604C289.34 283.244 289.468 283.724 289.724 284.044C289.996 284.348 290.404 284.5 290.948 284.5C291.556 284.5 292.052 284.284 292.436 283.852C292.836 283.404 293.036 282.82 293.036 282.1V275.308H297.308V287.5H293.156V285.316H293.516C293.132 286.1 292.612 286.708 291.956 287.14C291.3 287.556 290.524 287.764 289.628 287.764ZM306.408 287.764C304.2 287.764 302.48 287.196 301.248 286.06C300.032 284.924 299.424 283.364 299.424 281.38C299.424 280.148 299.68 279.052 300.192 278.092C300.704 277.132 301.424 276.388 302.352 275.86C303.28 275.316 304.368 275.044 305.616 275.044C306.848 275.044 307.872 275.316 308.688 275.86C309.52 276.388 310.144 277.124 310.56 278.068C310.976 278.996 311.184 280.076 311.184 281.308V282.22H303V280.204H308.04L307.632 280.54C307.632 279.628 307.456 278.956 307.104 278.524C306.768 278.076 306.288 277.852 305.664 277.852C304.944 277.852 304.392 278.124 304.008 278.668C303.64 279.196 303.456 279.996 303.456 281.068V281.5C303.456 282.572 303.72 283.356 304.248 283.852C304.776 284.348 305.536 284.596 306.528 284.596C307.168 284.596 307.768 284.524 308.328 284.38C308.904 284.236 309.448 284.004 309.96 283.684L311.064 286.468C310.456 286.884 309.752 287.204 308.952 287.428C308.152 287.652 307.304 287.764 306.408 287.764ZM317.898 287.764C316.762 287.764 315.73 287.652 314.802 287.428C313.89 287.188 313.114 286.868 312.474 286.468L313.506 283.684C314.13 284.036 314.826 284.324 315.594 284.548C316.378 284.772 317.154 284.884 317.922 284.884C318.53 284.884 318.97 284.796 319.242 284.62C319.53 284.428 319.674 284.18 319.674 283.876C319.674 283.636 319.586 283.444 319.41 283.3C319.234 283.156 318.97 283.052 318.618 282.988L316.026 282.532C315.002 282.34 314.202 281.964 313.626 281.404C313.066 280.828 312.786 280.084 312.786 279.172C312.786 278.34 313.01 277.62 313.458 277.012C313.906 276.388 314.546 275.908 315.378 275.572C316.21 275.22 317.194 275.044 318.33 275.044C319.258 275.044 320.138 275.148 320.97 275.356C321.818 275.564 322.554 275.892 323.178 276.34L322.074 279.052C321.578 278.716 320.994 278.444 320.322 278.236C319.666 278.012 319.05 277.9 318.474 277.9C317.786 277.9 317.298 278.004 317.01 278.212C316.722 278.404 316.578 278.644 316.578 278.932C316.578 279.156 316.658 279.348 316.818 279.508C316.978 279.652 317.234 279.756 317.586 279.82L320.178 280.276C321.234 280.452 322.042 280.82 322.602 281.38C323.178 281.924 323.466 282.668 323.466 283.612C323.466 284.492 323.226 285.244 322.746 285.868C322.282 286.476 321.634 286.948 320.802 287.284C319.97 287.604 319.002 287.764 317.898 287.764ZM330.039 287.764C328.903 287.764 327.871 287.652 326.943 287.428C326.031 287.188 325.255 286.868 324.615 286.468L325.647 283.684C326.271 284.036 326.967 284.324 327.735 284.548C328.519 284.772 329.295 284.884 330.063 284.884C330.671 284.884 331.111 284.796 331.383 284.62C331.671 284.428 331.815 284.18 331.815 283.876C331.815 283.636 331.727 283.444 331.551 283.3C331.375 283.156 331.111 283.052 330.759 282.988L328.167 282.532C327.143 282.34 326.343 281.964 325.767 281.404C325.207 280.828 324.927 280.084 324.927 279.172C324.927 278.34 325.151 277.62 325.599 277.012C326.047 276.388 326.687 275.908 327.519 275.572C328.351 275.22 329.335 275.044 330.471 275.044C331.399 275.044 332.279 275.148 333.111 275.356C333.959 275.564 334.695 275.892 335.319 276.34L334.215 279.052C333.719 278.716 333.135 278.444 332.463 278.236C331.807 278.012 331.191 277.9 330.615 277.9C329.927 277.9 329.439 278.004 329.151 278.212C328.863 278.404 328.719 278.644 328.719 278.932C328.719 279.156 328.799 279.348 328.959 279.508C329.119 279.652 329.375 279.756 329.727 279.82L332.319 280.276C333.375 280.452 334.183 280.82 334.743 281.38C335.319 281.924 335.607 282.668 335.607 283.612C335.607 284.492 335.367 285.244 334.887 285.868C334.423 286.476 333.775 286.948 332.943 287.284C332.111 287.604 331.143 287.764 330.039 287.764ZM268.221 319.5V306.156H263.085V302.58H277.797V306.156H272.661V319.5H268.221ZM283.955 319.764C281.747 319.764 280.027 319.196 278.795 318.06C277.579 316.924 276.971 315.364 276.971 313.38C276.971 312.148 277.227 311.052 277.739 310.092C278.251 309.132 278.971 308.388 279.899 307.86C280.827 307.316 281.915 307.044 283.163 307.044C284.395 307.044 285.419 307.316 286.235 307.86C287.067 308.388 287.691 309.124 288.107 310.068C288.523 310.996 288.731 312.076 288.731 313.308V314.22H280.547V312.204H285.587L285.179 312.54C285.179 311.628 285.003 310.956 284.651 310.524C284.315 310.076 283.835 309.852 283.211 309.852C282.491 309.852 281.939 310.124 281.555 310.668C281.187 311.196 281.003 311.996 281.003 313.068V313.5C281.003 314.572 281.267 315.356 281.795 315.852C282.323 316.348 283.083 316.596 284.075 316.596C284.715 316.596 285.315 316.524 285.875 316.38C286.451 316.236 286.995 316.004 287.507 315.684L288.611 318.468C288.003 318.884 287.299 319.204 286.499 319.428C285.699 319.652 284.851 319.764 283.955 319.764ZM295.565 319.764C294.509 319.764 293.581 319.516 292.781 319.02C291.981 318.508 291.349 317.772 290.885 316.812C290.437 315.852 290.213 314.716 290.213 313.404C290.213 312.076 290.437 310.94 290.885 309.996C291.349 309.036 291.981 308.308 292.781 307.812C293.581 307.3 294.509 307.044 295.565 307.044C296.509 307.044 297.357 307.268 298.109 307.716C298.877 308.164 299.381 308.748 299.621 309.468H299.381L299.645 307.308H303.749C303.701 307.852 303.653 308.404 303.605 308.964C303.573 309.524 303.557 310.076 303.557 310.62V319.5H299.333L299.285 317.436H299.573C299.333 318.14 298.829 318.708 298.061 319.14C297.309 319.556 296.477 319.764 295.565 319.764ZM296.933 316.596C297.653 316.596 298.237 316.348 298.685 315.852C299.133 315.34 299.357 314.524 299.357 313.404C299.357 312.284 299.133 311.476 298.685 310.98C298.237 310.468 297.653 310.212 296.933 310.212C296.213 310.212 295.629 310.468 295.181 310.98C294.733 311.476 294.509 312.284 294.509 313.404C294.509 314.524 294.725 315.34 295.157 315.852C295.605 316.348 296.197 316.596 296.933 316.596ZM306.211 319.5V310.62C306.211 310.076 306.195 309.524 306.163 308.964C306.131 308.404 306.083 307.852 306.019 307.308H310.147L310.387 309.42H310.123C310.475 308.684 310.995 308.108 311.683 307.692C312.371 307.26 313.179 307.044 314.107 307.044C315.003 307.044 315.763 307.26 316.387 307.692C317.027 308.108 317.491 308.772 317.779 309.684H317.371C317.771 308.852 318.347 308.204 319.099 307.74C319.867 307.276 320.723 307.044 321.667 307.044C323.059 307.044 324.099 307.468 324.787 308.316C325.475 309.148 325.819 310.452 325.819 312.228V319.5H321.523V312.372C321.523 311.62 321.411 311.092 321.187 310.788C320.963 310.468 320.603 310.308 320.107 310.308C319.483 310.308 318.995 310.532 318.643 310.98C318.307 311.428 318.139 312.044 318.139 312.828V319.5H313.867V312.372C313.867 311.62 313.747 311.092 313.507 310.788C313.283 310.468 312.931 310.308 312.451 310.308C311.827 310.308 311.339 310.532 310.987 310.98C310.651 311.428 310.483 312.044 310.483 312.828V319.5H306.211ZM333.062 319.764C331.927 319.764 330.895 319.652 329.967 319.428C329.055 319.188 328.279 318.868 327.639 318.468L328.671 315.684C329.295 316.036 329.991 316.324 330.759 316.548C331.543 316.772 332.319 316.884 333.087 316.884C333.695 316.884 334.135 316.796 334.407 316.62C334.695 316.428 334.839 316.18 334.839 315.876C334.839 315.636 334.751 315.444 334.575 315.3C334.399 315.156 334.135 315.052 333.783 314.988L331.191 314.532C330.167 314.34 329.367 313.964 328.791 313.404C328.231 312.828 327.951 312.084 327.951 311.172C327.951 310.34 328.175 309.62 328.623 309.012C329.071 308.388 329.711 307.908 330.543 307.572C331.375 307.22 332.359 307.044 333.495 307.044C334.423 307.044 335.303 307.148 336.135 307.356C336.983 307.564 337.719 307.892 338.343 308.34L337.239 311.052C336.743 310.716 336.159 310.444 335.487 310.236C334.831 310.012 334.215 309.9 333.639 309.9C332.951 309.9 332.463 310.004 332.175 310.212C331.887 310.404 331.743 310.644 331.743 310.932C331.743 311.156 331.823 311.348 331.983 311.508C332.143 311.652 332.399 311.756 332.751 311.82L335.343 312.276C336.399 312.452 337.207 312.82 337.767 313.38C338.343 313.924 338.631 314.668 338.631 315.612C338.631 316.492 338.391 317.244 337.911 317.868C337.447 318.476 336.799 318.948 335.967 319.284C335.135 319.604 334.167 319.764 333.062 319.764Z" fill="white"/>
<rect y="392" width="194" height="197" rx="28" fill="#011324"/>
<path d="M69.1459 483.5V466.58H73.5859V479.828H80.8339V483.5H69.1459ZM88.7598 483.764C87.3998 483.764 86.2238 483.508 85.2318 482.996C84.2398 482.484 83.4718 481.756 82.9277 480.812C82.3838 479.852 82.1118 478.716 82.1118 477.404C82.1118 476.076 82.3838 474.94 82.9277 473.996C83.4718 473.052 84.2398 472.324 85.2318 471.812C86.2238 471.3 87.3998 471.044 88.7598 471.044C90.1038 471.044 91.2718 471.3 92.2638 471.812C93.2558 472.324 94.0238 473.06 94.5677 474.02C95.1118 474.964 95.3838 476.092 95.3838 477.404C95.3838 478.7 95.1118 479.828 94.5677 480.788C94.0238 481.748 93.2558 482.484 92.2638 482.996C91.2718 483.508 90.1038 483.764 88.7598 483.764ZM88.7598 480.596C89.4638 480.596 90.0238 480.348 90.4398 479.852C90.8558 479.34 91.0638 478.524 91.0638 477.404C91.0638 476.284 90.8558 475.476 90.4398 474.98C90.0238 474.468 89.4638 474.212 88.7598 474.212C88.0398 474.212 87.4718 474.468 87.0558 474.98C86.6398 475.476 86.4318 476.284 86.4318 477.404C86.4318 478.524 86.6398 479.34 87.0558 479.852C87.4718 480.348 88.0398 480.596 88.7598 480.596ZM103.452 488.876C102.236 488.876 101.164 488.764 100.236 488.54C99.3243 488.332 98.5003 488.004 97.7643 487.556L98.5083 484.532C98.9403 484.788 99.4123 485.004 99.9243 485.18C100.436 485.356 100.964 485.484 101.508 485.564C102.068 485.66 102.596 485.708 103.092 485.708C104.116 485.708 104.876 485.468 105.372 484.988C105.868 484.524 106.116 483.86 106.116 482.996V480.86H106.356C106.1 481.564 105.596 482.132 104.844 482.564C104.092 482.98 103.26 483.188 102.348 483.188C101.26 483.188 100.308 482.948 99.4923 482.468C98.6923 481.972 98.0603 481.268 97.5963 480.356C97.1483 479.444 96.9243 478.364 96.9243 477.116C96.9243 475.868 97.1483 474.788 97.5963 473.876C98.0603 472.964 98.6923 472.268 99.4923 471.788C100.308 471.292 101.26 471.044 102.348 471.044C103.292 471.044 104.124 471.252 104.844 471.668C105.564 472.084 106.052 472.636 106.308 473.324L106.116 473.276L106.38 471.308H110.484C110.42 471.852 110.372 472.404 110.34 472.964C110.308 473.524 110.292 474.076 110.292 474.62V482.516C110.292 484.564 109.708 486.132 108.54 487.22C107.372 488.324 105.676 488.876 103.452 488.876ZM103.668 480.02C104.404 480.02 104.988 479.772 105.42 479.276C105.852 478.78 106.068 478.06 106.068 477.116C106.068 476.156 105.852 475.436 105.42 474.956C104.988 474.46 104.404 474.212 103.668 474.212C102.916 474.212 102.324 474.46 101.892 474.956C101.46 475.436 101.244 476.156 101.244 477.116C101.244 478.06 101.46 478.78 101.892 479.276C102.324 479.772 102.916 480.02 103.668 480.02ZM119.018 483.764C117.658 483.764 116.482 483.508 115.49 482.996C114.498 482.484 113.73 481.756 113.186 480.812C112.642 479.852 112.37 478.716 112.37 477.404C112.37 476.076 112.642 474.94 113.186 473.996C113.73 473.052 114.498 472.324 115.49 471.812C116.482 471.3 117.658 471.044 119.018 471.044C120.362 471.044 121.53 471.3 122.522 471.812C123.514 472.324 124.282 473.06 124.826 474.02C125.37 474.964 125.642 476.092 125.642 477.404C125.642 478.7 125.37 479.828 124.826 480.788C124.282 481.748 123.514 482.484 122.522 482.996C121.53 483.508 120.362 483.764 119.018 483.764ZM119.018 480.596C119.722 480.596 120.282 480.348 120.698 479.852C121.114 479.34 121.322 478.524 121.322 477.404C121.322 476.284 121.114 475.476 120.698 474.98C120.282 474.468 119.722 474.212 119.018 474.212C118.298 474.212 117.73 474.468 117.314 474.98C116.898 475.476 116.69 476.284 116.69 477.404C116.69 478.524 116.898 479.34 117.314 479.852C117.73 480.348 118.298 480.596 119.018 480.596ZM53.3641 515.764C51.3961 515.764 49.7321 515.404 48.3721 514.684C47.0281 513.964 46.0041 512.956 45.3001 511.66C44.6121 510.364 44.2681 508.852 44.2681 507.124C44.2681 505.332 44.6441 503.78 45.3961 502.468C46.1641 501.14 47.2601 500.116 48.6841 499.396C50.1081 498.676 51.8201 498.316 53.8201 498.316C55.0521 498.316 56.1401 498.46 57.0841 498.748C58.0441 499.036 58.8681 499.452 59.5561 499.996L58.1881 503.38C57.6921 503.044 57.2201 502.788 56.7721 502.612C56.3401 502.42 55.8921 502.284 55.4281 502.204C54.9801 502.124 54.4601 502.084 53.8681 502.084C52.2041 502.084 50.9561 502.516 50.1241 503.38C49.3081 504.228 48.9001 505.476 48.9001 507.124C48.9001 508.756 49.2761 509.988 50.0281 510.82C50.7801 511.652 51.9721 512.068 53.6041 512.068C54.1001 512.068 54.6361 512.02 55.2121 511.924C55.8041 511.828 56.4041 511.684 57.0121 511.492L56.2201 513.076V509.044H52.7161V505.972H59.8441V514.444C58.9321 514.876 57.9081 515.204 56.7721 515.428C55.6521 515.652 54.5161 515.764 53.3641 515.764ZM66.9721 515.764C65.4201 515.764 64.2681 515.34 63.5161 514.492C62.7801 513.628 62.4121 512.324 62.4121 510.58V503.308H66.6841V510.604C66.6841 511.244 66.8121 511.724 67.0681 512.044C67.3401 512.348 67.7481 512.5 68.2921 512.5C68.9001 512.5 69.3961 512.284 69.7801 511.852C70.1801 511.404 70.3801 510.82 70.3801 510.1V503.308H74.6521V515.5H70.5001V513.316H70.8601C70.4761 514.1 69.9561 514.708 69.3001 515.14C68.6441 515.556 67.8681 515.764 66.9721 515.764ZM83.752 515.764C81.544 515.764 79.824 515.196 78.592 514.06C77.376 512.924 76.768 511.364 76.768 509.38C76.768 508.148 77.024 507.052 77.536 506.092C78.048 505.132 78.768 504.388 79.696 503.86C80.624 503.316 81.712 503.044 82.96 503.044C84.192 503.044 85.216 503.316 86.032 503.86C86.864 504.388 87.488 505.124 87.904 506.068C88.32 506.996 88.528 508.076 88.528 509.308V510.22H80.344V508.204H85.384L84.976 508.54C84.976 507.628 84.8 506.956 84.448 506.524C84.112 506.076 83.632 505.852 83.008 505.852C82.288 505.852 81.736 506.124 81.352 506.668C80.984 507.196 80.8 507.996 80.8 509.068V509.5C80.8 510.572 81.064 511.356 81.592 511.852C82.12 512.348 82.88 512.596 83.872 512.596C84.512 512.596 85.112 512.524 85.672 512.38C86.248 512.236 86.792 512.004 87.304 511.684L88.408 514.468C87.8 514.884 87.096 515.204 86.296 515.428C85.496 515.652 84.648 515.764 83.752 515.764ZM95.2422 515.764C94.1062 515.764 93.0742 515.652 92.1462 515.428C91.2342 515.188 90.4582 514.868 89.8182 514.468L90.8502 511.684C91.4742 512.036 92.1702 512.324 92.9382 512.548C93.7222 512.772 94.4982 512.884 95.2662 512.884C95.8742 512.884 96.3142 512.796 96.5862 512.62C96.8742 512.428 97.0182 512.18 97.0182 511.876C97.0182 511.636 96.9302 511.444 96.7542 511.3C96.5782 511.156 96.3142 511.052 95.9622 510.988L93.3702 510.532C92.3462 510.34 91.5462 509.964 90.9702 509.404C90.4102 508.828 90.1302 508.084 90.1302 507.172C90.1302 506.34 90.3542 505.62 90.8022 505.012C91.2502 504.388 91.8902 503.908 92.7222 503.572C93.5542 503.22 94.5382 503.044 95.6742 503.044C96.6022 503.044 97.4822 503.148 98.3142 503.356C99.1622 503.564 99.8982 503.892 100.522 504.34L99.4182 507.052C98.9222 506.716 98.3382 506.444 97.6662 506.236C97.0102 506.012 96.3942 505.9 95.8182 505.9C95.1302 505.9 94.6422 506.004 94.3542 506.212C94.0662 506.404 93.9222 506.644 93.9222 506.932C93.9222 507.156 94.0022 507.348 94.1622 507.508C94.3222 507.652 94.5782 507.756 94.9302 507.82L97.5222 508.276C98.5782 508.452 99.3862 508.82 99.9462 509.38C100.522 509.924 100.81 510.668 100.81 511.612C100.81 512.492 100.57 513.244 100.09 513.868C99.6262 514.476 98.9782 514.948 98.1462 515.284C97.3142 515.604 96.3462 515.764 95.2422 515.764ZM107.383 515.764C106.247 515.764 105.215 515.652 104.287 515.428C103.375 515.188 102.599 514.868 101.959 514.468L102.991 511.684C103.615 512.036 104.311 512.324 105.079 512.548C105.863 512.772 106.639 512.884 107.407 512.884C108.015 512.884 108.455 512.796 108.727 512.62C109.015 512.428 109.159 512.18 109.159 511.876C109.159 511.636 109.071 511.444 108.895 511.3C108.719 511.156 108.455 511.052 108.103 510.988L105.511 510.532C104.487 510.34 103.687 509.964 103.111 509.404C102.551 508.828 102.271 508.084 102.271 507.172C102.271 506.34 102.495 505.62 102.943 505.012C103.391 504.388 104.031 503.908 104.863 503.572C105.695 503.22 106.679 503.044 107.815 503.044C108.743 503.044 109.623 503.148 110.455 503.356C111.303 503.564 112.039 503.892 112.663 504.34L111.559 507.052C111.063 506.716 110.479 506.444 109.807 506.236C109.151 506.012 108.535 505.9 107.959 505.9C107.271 505.9 106.783 506.004 106.495 506.212C106.207 506.404 106.063 506.644 106.063 506.932C106.063 507.156 106.143 507.348 106.303 507.508C106.463 507.652 106.719 507.756 107.071 507.82L109.663 508.276C110.719 508.452 111.527 508.82 112.087 509.38C112.663 509.924 112.951 510.668 112.951 511.612C112.951 512.492 112.711 513.244 112.231 513.868C111.767 514.476 111.119 514.948 110.287 515.284C109.455 515.604 108.487 515.764 107.383 515.764ZM114.843 515.5V503.308H119.115V515.5H114.843ZM114.747 501.58V497.74H119.235V501.58H114.747ZM121.758 515.5V506.62C121.758 506.076 121.742 505.524 121.71 504.964C121.678 504.404 121.63 503.852 121.566 503.308H125.694L125.934 505.42H125.67C126.07 504.652 126.638 504.068 127.374 503.668C128.11 503.252 128.942 503.044 129.87 503.044C131.294 503.044 132.358 503.468 133.062 504.316C133.782 505.148 134.142 506.452 134.142 508.228V515.5H129.87V508.42C129.87 507.636 129.734 507.092 129.462 506.788C129.19 506.468 128.798 506.308 128.286 506.308C127.614 506.308 127.07 506.532 126.654 506.98C126.238 507.412 126.03 507.988 126.03 508.708V515.5H121.758ZM142.687 520.876C141.471 520.876 140.399 520.764 139.471 520.54C138.559 520.332 137.735 520.004 136.999 519.556L137.743 516.532C138.175 516.788 138.647 517.004 139.159 517.18C139.671 517.356 140.199 517.484 140.743 517.564C141.303 517.66 141.831 517.708 142.327 517.708C143.351 517.708 144.111 517.468 144.607 516.988C145.103 516.524 145.351 515.86 145.351 514.996V512.86H145.591C145.335 513.564 144.831 514.132 144.079 514.564C143.327 514.98 142.495 515.188 141.583 515.188C140.495 515.188 139.543 514.948 138.727 514.468C137.927 513.972 137.295 513.268 136.831 512.356C136.383 511.444 136.159 510.364 136.159 509.116C136.159 507.868 136.383 506.788 136.831 505.876C137.295 504.964 137.927 504.268 138.727 503.788C139.543 503.292 140.495 503.044 141.583 503.044C142.527 503.044 143.359 503.252 144.079 503.668C144.799 504.084 145.287 504.636 145.543 505.324L145.351 505.276L145.615 503.308H149.719C149.655 503.852 149.607 504.404 149.575 504.964C149.543 505.524 149.527 506.076 149.527 506.62V514.516C149.527 516.564 148.943 518.132 147.775 519.22C146.607 520.324 144.911 520.876 142.687 520.876ZM142.903 512.02C143.639 512.02 144.223 511.772 144.655 511.276C145.087 510.78 145.303 510.06 145.303 509.116C145.303 508.156 145.087 507.436 144.655 506.956C144.223 506.46 143.639 506.212 142.903 506.212C142.151 506.212 141.559 506.46 141.127 506.956C140.695 507.436 140.479 508.156 140.479 509.116C140.479 510.06 140.695 510.78 141.127 511.276C141.559 511.772 142.151 512.02 142.903 512.02Z" fill="white"/>
</svg>
