<svg width="32" height="36" viewBox="0 0 32 36" fill="none" xmlns="http://www.w3.org/2000/svg">
<path d="M10.5001 16.1667V7C10.5001 5.54131 11.0796 4.14236 12.111 3.11091C13.1425 2.07946 14.5414 1.5 16.0001 1.5C17.4588 1.5 18.8578 2.07946 19.8892 3.11091C20.9207 4.14236 21.5001 5.54131 21.5001 7V16.1667M5.60705 10.6667H26.3952C26.9239 10.6666 27.4463 10.7809 27.9267 11.0016C28.4071 11.2224 28.834 11.5444 29.1783 11.9456C29.5226 12.3468 29.776 12.8177 29.9213 13.3261C30.0665 13.8344 30.1001 14.3681 30.0197 14.8907L27.7189 29.836C27.5191 31.1348 26.861 32.3192 25.8635 33.1747C24.8661 34.0302 23.5953 34.5004 22.2812 34.5H9.71921C8.40545 34.4999 7.13509 34.0296 6.13803 33.1741C5.14097 32.3186 4.48307 31.1345 4.28338 29.836L1.98255 14.8907C1.90219 14.3681 1.93578 13.8344 2.08101 13.3261C2.22624 12.8177 2.47967 12.3468 2.82395 11.9456C3.16822 11.5444 3.59518 11.2224 4.07556 11.0016C4.55594 10.7809 5.07837 10.6666 5.60705 10.6667Z" stroke="#011324" stroke-width="3" stroke-linecap="round" stroke-linejoin="round"/>
</svg>
