<svg width="24" height="24" viewBox="0 0 24 24" fill="none" xmlns="http://www.w3.org/2000/svg">
<path d="M1.0454 10.9638C1.07133 11.1186 1.11257 11.2903 1.17581 11.4768C1.20626 11.5666 1.24377 11.6609 1.28502 11.7571C1.37537 11.9678 1.49362 12.1934 1.64682 12.4316C1.70123 12.5163 1.75996 12.6023 1.8236 12.6901C1.84992 12.7262 1.87663 12.7623 1.90433 12.7991C2.11351 13.0735 2.37101 13.3613 2.6841 13.6588C2.68508 13.6598 2.68606 13.6608 2.68724 13.6618C2.72928 13.7017 2.77092 13.7415 2.81511 13.7817C2.8269 13.7923 2.83986 13.8032 2.85165 13.8139C2.85557 13.8176 2.8599 13.8212 2.86383 13.8248C2.96105 13.9124 3.06358 14.0006 3.17102 14.0896C3.20854 14.1207 3.24723 14.152 3.28592 14.1834C3.29987 14.1947 3.31303 14.2058 3.32717 14.2172C3.38 14.2591 3.43461 14.3015 3.4898 14.3439L3.49059 14.3445C3.55128 14.3911 3.61315 14.4377 3.67679 14.4847C3.72098 14.5172 3.76538 14.5497 3.81095 14.5824C3.90464 14.6494 4.00108 14.7168 4.10086 14.7846C4.1152 14.7943 4.12777 14.8038 4.1423 14.8135C4.16489 14.8286 4.19023 14.844 4.21321 14.8593C4.3122 14.9251 4.41395 14.9909 4.51903 15.0571C4.54221 15.0716 4.5646 15.0861 4.58817 15.1009C4.71171 15.1778 4.84095 15.2548 4.97314 15.3321C4.9922 15.3432 5.00948 15.3543 5.02873 15.3654C5.0417 15.3729 5.05603 15.3804 5.069 15.388C5.2059 15.4669 5.34712 15.5461 5.49326 15.6252C5.52233 15.6409 5.55199 15.6566 5.58145 15.6724C5.7376 15.7561 5.89728 15.8399 6.06424 15.9238L6.06503 15.9242C6.06503 15.9242 5.63389 16.7777 5.25912 17.9932C5.25853 17.9954 5.25775 17.9974 5.25716 17.9996C5.20295 18.1754 5.15031 18.3582 5.10003 18.5475C5.09904 18.5512 5.09807 18.5548 5.09708 18.5584C5.09257 18.5754 5.08785 18.5915 5.08353 18.6087C5.06625 18.6753 5.04955 18.7433 5.03305 18.8111C5.03089 18.8202 5.02853 18.8288 5.02637 18.8379C5.02264 18.8531 5.01872 18.8678 5.01518 18.8831C5.01263 18.894 5.01026 18.9053 5.00771 18.9162C5.00732 18.9178 5.00693 18.9195 5.00654 18.9213C4.99377 18.9756 4.98159 19.0305 4.96941 19.0853C4.96666 19.0981 4.96352 19.1108 4.96077 19.1235C4.9537 19.1562 4.94682 19.1891 4.93995 19.222C4.93504 19.2458 4.93032 19.2698 4.92561 19.2936C4.9207 19.3174 4.91598 19.341 4.91127 19.365C4.90793 19.382 4.9044 19.3987 4.90106 19.4157C4.8934 19.4555 4.88633 19.4956 4.87906 19.5358C4.87317 19.5681 4.86767 19.6006 4.86197 19.633C4.86099 19.6389 4.86001 19.6448 4.85883 19.6506C4.85529 19.6714 4.85136 19.692 4.84783 19.7128C4.83997 19.7608 4.8329 19.8092 4.82544 19.8577C4.82014 19.892 4.81503 19.9261 4.81012 19.9606C4.80757 19.9787 4.80462 19.9965 4.80226 20.0147C4.79421 20.0732 4.78753 20.1323 4.78066 20.1912C4.77693 20.2233 4.7726 20.2552 4.76907 20.2873C4.76789 20.2978 4.76671 20.3081 4.76553 20.3186C4.75846 20.3868 4.75276 20.4552 4.74707 20.5238C4.74471 20.5511 4.74177 20.5783 4.7398 20.6056C4.73921 20.6128 4.73882 20.6201 4.73823 20.6273C4.73784 20.6334 4.73705 20.6395 4.73666 20.6455C4.73254 20.704 4.73037 20.7626 4.72762 20.8213C4.72644 20.8439 4.72488 20.8665 4.72389 20.8893C4.72389 20.8885 4.7237 20.8879 4.7237 20.8871C4.7235 20.8901 4.72369 20.8929 4.7235 20.896C4.72291 20.9083 4.72232 20.9204 4.72193 20.9327C4.72153 20.9418 4.72114 20.951 4.72094 20.9601C4.72016 20.9813 4.72055 21.0023 4.71996 21.0235C4.71957 21.0388 4.71957 21.0542 4.71937 21.0695C4.71859 21.1093 4.7176 21.149 4.71741 21.1888C4.71741 21.2059 4.71682 21.2229 4.71682 21.24C4.71682 21.2566 4.71741 21.2731 4.71761 21.2897C4.7178 21.3183 4.71878 21.3468 4.71937 21.3755C4.72016 21.411 4.72094 21.4465 4.72232 21.482C4.7231 21.5036 4.7231 21.5252 4.72409 21.5468C4.72526 21.5712 4.72723 21.5952 4.7286 21.6196C4.72998 21.6439 4.73096 21.6683 4.73253 21.6925C4.7343 21.7203 4.73705 21.748 4.73941 21.7756C4.74137 21.8011 4.74255 21.8267 4.74491 21.8521C4.74687 21.8749 4.75001 21.8975 4.75237 21.9203C4.75512 21.9466 4.75728 21.973 4.76023 21.9992C4.76318 22.0253 4.7671 22.0509 4.77044 22.0767C4.77378 22.1028 4.77594 22.129 4.77968 22.155C4.78203 22.1714 4.78517 22.1877 4.78753 22.2041C4.79303 22.2412 4.79931 22.2781 4.8056 22.3153C4.81051 22.3447 4.81562 22.374 4.82092 22.4033C4.82406 22.42 4.82623 22.4372 4.82956 22.4539C4.83172 22.4646 4.83447 22.4753 4.83663 22.486C4.84685 22.5373 4.85903 22.5879 4.87081 22.6386C4.87749 22.667 4.88318 22.6957 4.89026 22.7239C4.89222 22.7322 4.89379 22.7405 4.89595 22.7487C4.89732 22.7538 4.8989 22.759 4.90027 22.7641C4.92384 22.8551 4.94957 22.9453 4.97825 23.0345C4.97864 23.0357 4.97884 23.0369 4.97923 23.0381C5.00948 23.132 5.04268 23.2232 5.08353 23.3092C5.12439 23.3951 5.17251 23.4755 5.23241 23.5479C5.23379 23.5501 5.23477 23.5523 5.23595 23.5544L5.23988 23.5562C5.35674 23.6946 5.5017 23.806 5.66335 23.8819C5.71481 23.9059 5.76824 23.9251 5.82265 23.9416C5.8967 23.9642 5.97271 23.9812 6.05088 23.9889C6.09606 23.9933 6.14163 23.9951 6.18759 23.9941L6.1923 23.9963C6.1923 23.9963 6.74797 24.0565 7.81471 23.6785C8.28139 23.513 8.84609 23.2638 9.50468 22.8888C9.69285 22.7816 9.88867 22.6644 10.0922 22.5356C10.8044 22.0856 11.6095 21.4977 12.504 20.7309C13.5263 21.6075 14.432 22.2499 15.2153 22.7203C15.607 22.9556 15.9682 23.1477 16.2981 23.3049C16.4631 23.3834 16.6203 23.4533 16.7695 23.5152C16.8442 23.5463 16.9169 23.5751 16.9874 23.6024C17.1288 23.6567 17.262 23.7037 17.3875 23.7445C18.3275 24.0494 18.816 23.9965 18.816 23.9965L18.8207 23.9943C18.9586 23.9971 19.0936 23.9753 19.2206 23.9321C19.2631 23.9178 19.3045 23.9011 19.345 23.8821C19.5068 23.8062 19.6518 23.6948 19.7684 23.5564L19.7724 23.5546C19.7732 23.5534 19.7737 23.5521 19.7743 23.5509C19.7747 23.5499 19.7753 23.5489 19.7759 23.5481C19.8191 23.4958 19.8547 23.4383 19.8875 23.3786C19.9 23.3556 19.9136 23.3334 19.9248 23.3096C19.9656 23.2238 19.999 23.1324 20.0291 23.0385C20.0295 23.0373 20.0299 23.0361 20.0303 23.0349C20.0589 22.9457 20.0847 22.8555 20.108 22.7647C20.1094 22.7594 20.111 22.7544 20.1124 22.7492C20.1145 22.7409 20.1161 22.7324 20.1181 22.7241C20.1251 22.6961 20.1308 22.6674 20.1373 22.6392C20.1491 22.5883 20.1613 22.5375 20.1715 22.4862C20.1736 22.4755 20.1764 22.4648 20.1786 22.4541C20.1819 22.4374 20.1841 22.4202 20.1872 22.4035C20.1927 22.3742 20.1976 22.3447 20.2025 22.3155C20.2088 22.2785 20.2149 22.2416 20.2206 22.2045C20.2231 22.1879 20.2263 22.1716 20.2286 22.155C20.2322 22.1292 20.2345 22.1032 20.2379 22.0773C20.2412 22.0513 20.2451 22.0255 20.2481 21.9994C20.251 21.9732 20.2534 21.9468 20.2559 21.9203C20.2583 21.8977 20.2614 21.8753 20.2634 21.8527C20.2658 21.8273 20.2667 21.8017 20.2689 21.7762C20.2711 21.7484 20.2738 21.7205 20.2758 21.6925C20.2774 21.6685 20.2783 21.6445 20.2797 21.6202C20.2811 21.5958 20.2832 21.5716 20.2842 21.5472C20.2852 21.5256 20.2852 21.504 20.286 21.4826C20.2874 21.4471 20.2882 21.4114 20.2889 21.3759C20.2895 21.3472 20.2905 21.3187 20.2907 21.2903C20.2909 21.2737 20.2913 21.2572 20.2915 21.2404C20.2915 21.2235 20.2911 21.2063 20.2909 21.1894C20.2907 21.1494 20.2897 21.1095 20.2889 21.0695C20.2887 21.0542 20.2887 21.039 20.2884 21.0237C20.2878 21.0027 20.2882 20.9817 20.2874 20.9605C20.287 20.9513 20.2866 20.9422 20.2864 20.9331C20.286 20.921 20.2852 20.9089 20.2848 20.8968C20.2846 20.8937 20.2846 20.8907 20.2846 20.8877C20.2846 20.8885 20.2844 20.8891 20.2844 20.8899C20.2834 20.8673 20.2819 20.8447 20.2807 20.8221C20.2776 20.7573 20.2746 20.6925 20.2701 20.628C20.2695 20.6207 20.2691 20.6134 20.2685 20.606C20.2666 20.5785 20.2634 20.5513 20.2612 20.524C20.2555 20.4556 20.25 20.3872 20.2428 20.3192C20.2418 20.3089 20.2404 20.2986 20.2394 20.2883C20.2359 20.2558 20.2316 20.2237 20.2279 20.1914C20.221 20.1325 20.2141 20.0734 20.2062 20.0147C20.2039 19.9967 20.2009 19.9789 20.1984 19.961C20.1935 19.9267 20.1884 19.8926 20.1831 19.8585C20.1774 19.8211 20.1725 19.7832 20.1664 19.7461C20.1646 19.7352 20.1624 19.7247 20.1607 19.7138C20.1571 19.692 20.153 19.6704 20.1493 19.6488C20.1485 19.6437 20.1475 19.6387 20.1465 19.6337C20.1408 19.6012 20.1353 19.5687 20.1294 19.5364C20.1222 19.4962 20.1151 19.4561 20.1075 19.4163C20.1041 19.3994 20.1006 19.3826 20.0972 19.3657C20.0925 19.3418 20.0876 19.318 20.0829 19.2942C20.078 19.2704 20.0735 19.2464 20.0684 19.2226C20.0644 19.2036 20.0609 19.1842 20.0568 19.1655C20.0538 19.1515 20.0505 19.138 20.0473 19.1243C20.0446 19.1118 20.0417 19.0995 20.0389 19.087C20.0267 19.0319 20.0145 18.9768 20.0018 18.9225C20.0014 18.9207 20.001 18.9189 20.0006 18.9172C19.9943 18.8908 19.988 18.8646 19.9817 18.8383C19.9798 18.8305 19.9778 18.8228 19.9759 18.8149C19.9548 18.7285 19.9332 18.643 19.9108 18.5588C19.9101 18.556 19.9093 18.5534 19.9087 18.5506C19.8902 18.4807 19.8716 18.4111 19.8525 18.3429C19.8195 18.2254 19.7855 18.112 19.751 18.0004C19.7504 17.9982 19.7496 17.9962 19.749 17.994C19.6304 17.6091 19.5062 17.2596 19.3917 16.9631C19.3422 16.8352 19.2947 16.7167 19.2501 16.6094C19.0719 16.1797 18.9429 15.9248 18.9429 15.9248C19.1102 15.8407 19.2703 15.7567 19.4269 15.6728C19.4559 15.6572 19.4856 15.6415 19.5143 15.626C19.6606 15.5467 19.802 15.4675 19.9391 15.3884C19.9521 15.381 19.9662 15.3735 19.979 15.366C19.998 15.3549 20.0151 15.344 20.0342 15.3329C20.1668 15.2554 20.2964 15.178 20.4203 15.1009C20.4433 15.0865 20.4651 15.0724 20.4877 15.0581C20.5932 14.9917 20.6951 14.9255 20.7945 14.8597C20.8173 14.8446 20.8424 14.8292 20.865 14.8141C20.8794 14.8044 20.8921 14.7949 20.9063 14.7852C21.0063 14.7174 21.1029 14.65 21.1968 14.5826C21.2156 14.5691 21.2367 14.5554 21.2555 14.5417C21.2814 14.5229 21.3044 14.5043 21.3298 14.4858C21.394 14.4385 21.4562 14.3913 21.5173 14.3445C21.5871 14.291 21.6548 14.2377 21.7208 14.1847C21.7599 14.1532 21.7986 14.1217 21.8365 14.0904C21.9436 14.0018 22.0457 13.9138 22.1427 13.8267C22.147 13.8228 22.1516 13.819 22.1557 13.8152C22.2123 13.7641 22.2669 13.7134 22.3201 13.663C22.3211 13.662 22.3221 13.661 22.3232 13.66C22.6365 13.3625 22.8938 13.0747 23.103 12.8003C23.1309 12.7637 23.1576 12.7274 23.1837 12.6913C23.2817 12.5565 23.3707 12.4243 23.4471 12.2966C23.5208 12.1739 23.5829 12.0558 23.639 11.9406C23.6653 11.8863 23.6899 11.8332 23.7127 11.7807C23.7581 11.6764 23.7987 11.5747 23.8315 11.478C23.8735 11.3537 23.906 11.2361 23.9305 11.1255C23.9535 11.0219 23.9692 10.9253 23.9802 10.8349C23.9814 10.8248 23.9828 10.8145 23.9839 10.8044C24.0252 10.4288 23.9761 10.1766 23.9543 10.09C23.9488 10.0682 23.945 10.0567 23.945 10.0567C23.9315 9.99979 23.9138 9.94469 23.8922 9.89101C23.849 9.78385 23.7909 9.68315 23.7223 9.58891C23.6879 9.54189 23.651 9.49628 23.6121 9.45228C21.8868 7.50767 16.483 8.1472 16.483 8.1472C16.483 8.1472 15.4536 3.90541 13.4654 1.92569C13.1816 1.64316 12.8654 1.43933 12.5034 1.43933C12.1416 1.43933 11.8251 1.64316 11.5415 1.92569C9.55319 3.90562 8.52397 8.1474 8.52397 8.1474C8.52397 8.1474 3.12015 7.50787 1.39482 9.45249C1.23887 9.62826 1.11571 9.82946 1.0617 10.0569C1.0617 10.0569 1.04677 10.1021 1.03263 10.1867C1.02556 10.229 1.01849 10.2811 1.01358 10.3425C1.01102 10.3731 1.00926 10.4062 1.00788 10.4413C1.00435 10.5441 1.00768 10.666 1.02281 10.8044C1.0289 10.8546 1.03597 10.9079 1.0454 10.9638Z" fill="#EDE8C5"/>
<path d="M22.9391 8.61737C22.8853 8.38993 22.7619 8.18873 22.606 8.01295C20.8806 6.06834 15.4768 6.70787 15.4768 6.70787C15.4768 6.70787 14.4474 2.46608 12.4593 0.486355C12.1754 0.203825 11.8592 0 11.4972 0C11.1354 0 10.819 0.203825 10.5354 0.486355C8.54704 2.46628 7.51781 6.70787 7.51781 6.70787C7.51781 6.70787 2.114 6.06834 0.388671 8.01295C0.232716 8.18873 0.10956 8.38993 0.0555456 8.61737C0.0551527 8.61878 -0.889023 11.4945 5.05828 14.4853C5.05828 14.4853 2.99512 18.562 3.9721 21.5992C4.0324 21.7869 4.10546 21.9643 4.22528 22.1088C4.22665 22.111 4.22764 22.1132 4.22882 22.1154L4.23274 22.1172C4.46628 22.3939 4.81256 22.5628 5.18065 22.5552L5.18536 22.5574C5.18536 22.5574 7.40802 22.7983 11.4972 19.292C15.5864 22.7981 17.8091 22.5574 17.8091 22.5574L17.8138 22.5552C18.1817 22.5628 18.528 22.3939 18.7617 22.1172L18.7656 22.1154C18.767 22.1132 18.768 22.111 18.7692 22.1088C18.889 21.9641 18.962 21.7869 19.0223 21.5992C19.9993 18.562 17.9362 14.4853 17.9362 14.4853C23.8837 11.4945 22.9395 8.61858 22.9391 8.61737Z" fill="#FCE457"/>
<path d="M21.6169 11.9199C18.7009 10.6835 15.2283 9.96301 11.4969 9.96301C7.76561 9.96301 4.29315 10.6837 1.37695 11.9199C2.13277 12.7167 3.28868 13.5953 5.0578 14.4851C5.0578 14.4851 2.99464 18.5618 3.97162 21.599C4.03192 21.7867 4.10499 21.9641 4.2248 22.1086C4.22617 22.1108 4.22716 22.113 4.22834 22.1152L4.23226 22.117C4.4658 22.3937 4.81209 22.5626 5.17998 22.555L5.18469 22.5572C5.18469 22.5572 7.40734 22.7981 11.4965 19.2917C15.5857 22.7979 17.8084 22.5572 17.8084 22.5572L17.8131 22.555C18.181 22.5626 18.5273 22.3937 18.761 22.117L18.7649 22.1152C18.7663 22.113 18.7673 22.1108 18.7685 22.1086C18.8883 21.9641 18.9614 21.7867 19.0217 21.599C19.9986 18.5618 17.9355 14.4851 17.9355 14.4851C19.7052 13.5955 20.8611 12.7167 21.6169 11.9199Z" fill="#FFC921"/>
<path d="M4.34045 16.277C3.85884 17.7393 3.40668 19.8425 3.97197 21.5992C4.03227 21.7869 4.10534 21.9643 4.22515 22.1088C4.22653 22.111 4.22751 22.1132 4.22869 22.1154L4.23262 22.1173C4.46616 22.3939 4.81244 22.5629 5.18033 22.5552L5.18504 22.5574C5.18504 22.5574 7.4077 22.7984 11.4969 19.292C15.5861 22.7982 17.8087 22.5574 17.8087 22.5574L17.8135 22.5552C18.1814 22.5629 18.5276 22.3939 18.7614 22.1173L18.7653 22.1154C18.7667 22.1132 18.7677 22.111 18.7688 22.1088C18.8886 21.9643 18.9617 21.7869 19.022 21.5992C19.5871 19.8425 19.135 17.7393 18.6535 16.277C16.6024 15.5315 14.1428 15.0962 11.4969 15.0962C8.85116 15.0962 6.39163 15.5313 4.34045 16.277Z" fill="#FFB300"/>
<path d="M11.0201 4.04221C10.5682 5.43165 9.90447 6.45582 9.53776 6.32989C9.17105 6.20396 9.24018 4.97556 9.69214 3.58612C10.1441 2.19668 10.8078 1.17251 11.1745 1.29844C11.5414 1.42416 11.4723 2.65276 11.0201 4.04221Z" fill="#FCF3BD"/>
<path d="M9.63273 7.66954C9.54474 7.94037 9.25954 8.08648 8.99595 7.99607C8.73236 7.90545 8.59015 7.61263 8.67814 7.34181C8.76614 7.07098 9.05134 6.92487 9.31493 7.01528C9.57852 7.1059 9.72073 7.39872 9.63273 7.66954Z" fill="#FCF3BD"/>
<path d="M4.95406 7.22811C6.3773 7.13971 7.5501 7.38955 7.57328 7.7861C7.59665 8.18265 6.46175 8.57577 5.03852 8.66416C3.61528 8.75256 2.44267 8.50272 2.4193 8.10617C2.39593 7.70962 3.53063 7.3165 4.95406 7.22811Z" fill="#FCF3BD"/>
<path d="M18.1305 7.15448C19.0863 7.23964 19.8392 7.56838 19.812 7.88865C19.7849 8.20892 18.9883 8.39922 18.0325 8.31406C17.0767 8.22869 16.3239 7.90015 16.3508 7.57988C16.3779 7.25962 17.1748 7.06931 18.1305 7.15448Z" fill="#FCF3BD"/>
<path d="M17.8089 22.5572L17.8137 22.555C18.1815 22.5627 18.5278 22.3938 18.7616 22.1171L18.7655 22.1153C18.7669 22.1131 18.7678 22.1108 18.769 22.1086C18.8888 21.9641 18.9619 21.7867 19.0222 21.5991C19.5172 20.0605 19.2318 18.2561 18.8297 16.8491C18.8299 16.8513 19.2917 21.3244 16.7453 20.9139C14.1984 20.5034 12.7408 17.332 11.4969 17.332C10.253 17.332 8.79557 20.5034 6.24844 20.9139C3.70209 21.3244 4.16386 16.8513 4.16406 16.8491C3.76219 18.2561 3.4766 20.0605 3.97157 21.5991C4.03187 21.7867 4.10494 21.9641 4.22475 22.1086C4.22613 22.1108 4.22711 22.1131 4.22829 22.1153L4.23222 22.1171C4.46576 22.3938 4.81204 22.5627 5.17993 22.555L5.18464 22.5572C5.18464 22.5572 7.40729 22.7982 11.4965 19.2918C15.5863 22.7982 17.8089 22.5572 17.8089 22.5572Z" fill="#E6A100"/>
<path d="M22.5316 8.09552C22.532 8.09673 23.3071 10.869 17.5713 13.6785C17.5713 13.6785 17.7296 13.9834 17.9358 14.4851C23.8831 11.4944 22.939 8.6186 22.9386 8.61719C22.8848 8.38976 22.7614 8.18855 22.6056 8.01278C22.5501 7.95022 22.4905 7.89069 22.4279 7.83337C22.4723 7.91652 22.5092 8.00329 22.5316 8.09552Z" fill="#FFB300"/>
<path d="M5.05788 14.4852C5.26412 13.9835 5.42243 13.6786 5.42243 13.6786C-0.31333 10.869 0.461731 8.09677 0.462124 8.09556C0.484516 8.00334 0.521439 7.91676 0.565829 7.83362C0.502976 7.89093 0.443462 7.95046 0.388072 8.01302C0.232117 8.1888 0.108961 8.39 0.0549465 8.61744C0.0547501 8.61865 -0.889424 11.4946 5.05788 14.4852Z" fill="#FFB300"/>
<path d="M19.0222 20.9563C18.9619 21.144 18.8889 21.3214 18.7691 21.4659C18.7677 21.4681 18.7667 21.4703 18.7655 21.4725L18.7616 21.4743C18.5281 21.751 18.1818 21.9199 17.8137 21.9123L17.809 21.9145C17.809 21.9145 15.5863 22.1554 11.4971 18.649C7.40792 22.1552 5.18527 21.9145 5.18527 21.9145L5.18056 21.9123C4.81267 21.9199 4.46639 21.751 4.23285 21.4743L4.22892 21.4725C4.22754 21.4703 4.22656 21.4681 4.22538 21.4659C4.10557 21.3212 4.0325 21.144 3.9722 20.9563C3.81664 20.4728 3.73866 19.963 3.71666 19.4478C3.68641 20.1785 3.75201 20.9151 3.9722 21.5991C4.0325 21.7867 4.10557 21.9641 4.22538 22.1086C4.22675 22.1108 4.22774 22.1131 4.22892 22.1151L4.23285 22.1169C4.46639 22.3936 4.81267 22.5625 5.18056 22.5548L5.18527 22.557C5.18527 22.557 7.40792 22.798 11.4971 19.2916C15.5863 22.7978 17.809 22.557 17.809 22.557L17.8137 22.5548C18.1816 22.5625 18.5279 22.3936 18.7616 22.1169L18.7655 22.1151C18.7669 22.1129 18.7679 22.1106 18.7691 22.1086C18.8889 21.9639 18.9619 21.7867 19.0222 21.5991C19.2422 20.9151 19.3078 20.1785 19.2778 19.4478C19.2556 19.9632 19.1778 20.473 19.0222 20.9563Z" fill="#D49400"/>
</svg>
